<mxfile host="65bd71144e">
    <diagram id="5jEfxVwqZtwkkLB00oML" name="Page-1">
        <mxGraphModel dx="1740" dy="1447" grid="0" gridSize="10" guides="1" tooltips="1" connect="1" arrows="1" fold="1" page="0" pageScale="1" pageWidth="827" pageHeight="1169" math="0" shadow="0">
            <root>
                <mxCell id="0"/>
                <mxCell id="1" parent="0"/>
                <mxCell id="AhNlXJ4hRKMXUMh4VS_F-3" value="" style="sketch=1;orthogonalLoop=1;jettySize=auto;html=1;endArrow=open;sourcePerimeterSpacing=8;targetPerimeterSpacing=8;fontSize=16;fontFamily=Architects Daughter;fontSource=https%3A%2F%2Ffonts.googleapis.com%2Fcss%3Ffamily%3DArchitects%2BDaughter;startSize=14;endSize=14;curved=1;exitX=1;exitY=0.357;exitDx=0;exitDy=0;exitPerimeter=0;entryX=0.5;entryY=0;entryDx=0;entryDy=0;" parent="1" source="729UBDh0aR7hyHmuS7Is-1" target="AhNlXJ4hRKMXUMh4VS_F-34" edge="1">
                    <mxGeometry width="120" relative="1" as="geometry">
                        <mxPoint x="121.10999999999967" y="377.00800000000004" as="sourcePoint"/>
                        <mxPoint x="435.5" y="418" as="targetPoint"/>
                        <Array as="points">
                            <mxPoint x="399" y="227"/>
                        </Array>
                    </mxGeometry>
                </mxCell>
                <mxCell id="AhNlXJ4hRKMXUMh4VS_F-4" value="12. Click here to export and undo" style="text;html=1;align=center;verticalAlign=middle;resizable=0;points=[];autosize=1;strokeColor=none;sketch=1;hachureGap=4;pointerEvents=0;fontFamily=Architects Daughter;fontSource=https%3A%2F%2Ffonts.googleapis.com%2Fcss%3Ffamily%3DArchitects%2BDaughter;fontSize=20;" parent="1" vertex="1">
                    <mxGeometry x="-566" y="-144" width="316" height="28" as="geometry"/>
                </mxCell>
                <mxCell id="AhNlXJ4hRKMXUMh4VS_F-5" value="" style="edgeStyle=none;curved=1;rounded=0;sketch=1;orthogonalLoop=1;jettySize=auto;html=1;endArrow=open;sourcePerimeterSpacing=8;targetPerimeterSpacing=8;fontSize=16;fontFamily=Architects Daughter;fontSource=https%3A%2F%2Ffonts.googleapis.com%2Fcss%3Ffamily%3DArchitects%2BDaughter;startSize=14;endSize=14;exitX=-0.007;exitY=0.5;exitDx=0;exitDy=0;exitPerimeter=0;" parent="1" source="AhNlXJ4hRKMXUMh4VS_F-4" edge="1">
                    <mxGeometry width="120" relative="1" as="geometry">
                        <mxPoint x="140" y="279" as="sourcePoint"/>
                        <mxPoint x="-606" y="-158" as="targetPoint"/>
                        <Array as="points">
                            <mxPoint x="-606" y="-120"/>
                        </Array>
                    </mxGeometry>
                </mxCell>
                <mxCell id="AhNlXJ4hRKMXUMh4VS_F-10" style="edgeStyle=none;curved=1;sketch=1;orthogonalLoop=1;jettySize=auto;html=1;fontFamily=Architects Daughter;fontSource=https%3A%2F%2Ffonts.googleapis.com%2Fcss%3Ffamily%3DArchitects%2BDaughter;fontSize=20;endArrow=open;startSize=14;endSize=14;sourcePerimeterSpacing=8;targetPerimeterSpacing=8;exitX=0;exitY=0.5;exitDx=0;exitDy=0;exitPerimeter=0;" parent="1" source="AhNlXJ4hRKMXUMh4VS_F-6" edge="1">
                    <mxGeometry relative="1" as="geometry">
                        <mxPoint x="-326" y="121" as="sourcePoint"/>
                        <mxPoint x="-568" y="203" as="targetPoint"/>
                        <Array as="points">
                            <mxPoint x="-506" y="31"/>
                            <mxPoint x="-499" y="152"/>
                        </Array>
                    </mxGeometry>
                </mxCell>
                <mxCell id="AhNlXJ4hRKMXUMh4VS_F-6" value="1. Drag or click to add shapes and text" style="text;html=1;align=center;verticalAlign=middle;resizable=0;points=[];autosize=1;strokeColor=none;sketch=1;hachureGap=4;pointerEvents=0;fontFamily=Architects Daughter;fontSource=https%3A%2F%2Ffonts.googleapis.com%2Fcss%3Ffamily%3DArchitects%2BDaughter;fontSize=20;" parent="1" vertex="1">
                    <mxGeometry x="-414" y="-6" width="369" height="28" as="geometry"/>
                </mxCell>
                <mxCell id="AhNlXJ4hRKMXUMh4VS_F-11" value="" style="shape=image;verticalLabelPosition=bottom;labelBackgroundColor=#ffffff;verticalAlign=top;aspect=fixed;imageAspect=0;image=data:image/png,iVBORw0KGgoAAAANSUhEUgAAAXAAAAHICAYAAABXgLEnAAAAAXNSR0IArs4c6QAAAJBlWElmTU0AKgAAAAgABgEGAAMAAAABAAIAAAESAAMAAAABAAEAAAEaAAUAAAABAAAAVgEbAAUAAAABAAAAXgEoAAMAAAABAAIAAIdpAAQAAAABAAAAZgAAAAAAAACQAAAAAQAAAJAAAAABAAOgAQADAAAAAQABAACgAgAEAAAAAQAAAXCgAwAEAAAAAQAAAcgAAAAAgGMrkQAAAAlwSFlzAAAWJQAAFiUBSVIk8AAAAm9pVFh0WE1MOmNvbS5hZG9iZS54bXAAAAAAADx4OnhtcG1ldGEgeG1sbnM6eD0iYWRvYmU6bnM6bWV0YS8iIHg6eG1wdGs9IlhNUCBDb3JlIDYuMC4wIj4KICAgPHJkZjpSREYgeG1sbnM6cmRmPSJodHRwOi8vd3d3LnczLm9yZy8xOTk5LzAyLzIyLXJkZi1zeW50YXgtbnMjIj4KICAgICAgPHJkZjpEZXNjcmlwdGlvbiByZGY6YWJvdXQ9IiIKICAgICAgICAgICAgeG1sbnM6dGlmZj0iaHR0cDovL25zLmFkb2JlLmNvbS90aWZmLzEuMC8iPgogICAgICAgICA8dGlmZjpSZXNvbHV0aW9uVW5pdD4yPC90aWZmOlJlc29sdXRpb25Vbml0PgogICAgICAgICA8dGlmZjpYUmVzb2x1dGlvbj4xNDQ8L3RpZmY6WFJlc29sdXRpb24+CiAgICAgICAgIDx0aWZmOllSZXNvbHV0aW9uPjE0NDwvdGlmZjpZUmVzb2x1dGlvbj4KICAgICAgICAgPHRpZmY6T3JpZW50YXRpb24+MTwvdGlmZjpPcmllbnRhdGlvbj4KICAgICAgICAgPHRpZmY6Q29tcHJlc3Npb24+MTwvdGlmZjpDb21wcmVzc2lvbj4KICAgICAgICAgPHRpZmY6UGhvdG9tZXRyaWNJbnRlcnByZXRhdGlvbj4yPC90aWZmOlBob3RvbWV0cmljSW50ZXJwcmV0YXRpb24+CiAgICAgIDwvcmRmOkRlc2NyaXB0aW9uPgogICA8L3JkZjpSREY+CjwveDp4bXBtZXRhPgpgtfwkAABAAElEQVR4Ae2daawdR1r++15fTxImjJ0ZiRkQJgkgRoKBxCCEBIgkYhmQ/uAYsW9JAPEFUBJAGgkESUBi+UKSLwj44liMWAVJWMROYqFB7I4BIbEmMWBrbILjeGLH8XL+9euZ9+Q9dbvP6XN6qepznlfqW9V9uqveeqrqqbfequ67NQlSZCCZqJEBElJBCAiB3BDY2trKTaVSn50UWomsU6CuPIWAEFgVgSrOyoHUByPwKgA8mIt+9/cqLgSEgBAYGoGYsD1nxb8NpVvvBO4LaYWKr8Xndp+Fi363+xQKASEgBFZFYFkS9vd7jvLXV9Wl6XO9EbgvEMr486q4v1al/KLfq57RNSEgBIRAUwTmES+/wUF19/jr8+5rqkvT+zon8Jho7bxpiOJ2b9NC6D4hIASEQNcIeFK2uA/hKTu3vO3cOMzO7feuw84I3BQ2Be3ch8Tjc+731+3c0rHQnrNzhUJACAiBrhCoIlp/jbidV8XhJ/sdnSxuvGXnXelr6XRC4KYkiVrch8TnHfacf8YU9KH97q8pLgSEgBBog0Adudp1HxKvO9ABjrL7Obd4fJ3fupDWBO5J1eKEVcf169en132cgtj9FveFs3T9NcWFgBAQAl0iYGTr0zSy5prFLdze3p65Zuf+eXuOEB6ryiO+f5nzVgTuidUIOA6NqOtCf78V0ofLFEb3CgEhIAS6QMCI1odG3ISQNZxmcc7hMiNxu9d04RzhHovbb23ClQkcRRAfEufwZB3H/bnd70OfZhznXCIEhIAQ6BMBI1gfWtwTNHEOOM3icJndQxgL6XAPYmnG9yxzvhKBmwI+JO7Jmfi8g/v37t1bfNzHfVwZ7uzslAXqolDLAKB7hYAQEAJ1CMBTHFevXi2uXLlSXLx4sQzhKSNtQrvPQrtGaPcS8rtxnI/X5b/o+lZIZKlvodjtPpxH3NeuXZshcgr0jne8o7jxxhunBVmkpH4XAkJACOSCAHx3+fLl4rXXXpuxvuE2jj179syQuydxygCBG4lbuGrZliJwI20yI85RRd5G2oQWx8Lev39/aW2vqqyeEwJCQAjkhMCbb75ZnD9/vrTQPXkbiVvYF4k3JvAm5O0J28ff+c53lhZ3TsBLFyEgBIRAVwi88cYbxSuvvFJa30bahD7uSdws7zhcVp9GBF5F3mZ9m5/bCNuHN9xwQ3HLLbdMpwvLKqf7hYAQEAJjQQBOPHfuXOleMfK20FvnkLaRuRE4ZfTxpmVeahETBe0w4ib0pG1x/Nxvf/vbm+qh+4SAEBACo0YAAsbb8Prrr5duFbjSixE05O1/s+v+3qbxhQRuGRlx+9BI3EjbQnzdN910U1MddJ8QEAJCYG0QwHCFpLHG5wn3mEDicOuyZL6QwC0DC8nEiNusbwshcJG3IaVQCAiBTUXADFhI3JMycSPrKsKuujYPw7kETmIIYXzEJA554zYxxedlqt+EgBAQAuuOAFwIT7LdEIG44UkjdCNyw8Gu23mT8C0bvsHdRuJV5M2CpXzeDUDULUJACGwMAnAi3GheCgvhUuLGqR4QrjWVWgK3RCwDC6vIm2vsNpEIASEgBITALAK4lbG8PXcaeVto/Dr75OKzWgKPH7UMLPTKsPK6ivkf56FzISAEhMC6IcBi5bve9a7pbj3PncanhKtIJYFbYj5x4j5ji/OGJa/FS4SAEBACQqAaATgSrjTeJDR+5QmLE9p5GVnwp5LA42d84sS9EkwPJEJACAgBITAfAbjSc6eROOGqspDA55E3UwO+KCgRAkJACAiB+Qi87W1vK/eHe+K2uOdZS4Vri2QXgdtDlqAlYOcWkjHbBiVCQAgIASHQDIF9+/aV7pIq4vbc2yy1othF4PGDRtiEZGoH5/J9x2jpXAgIASFQj4BtKawi8Pqn6n9ZSOA86knc4rhOtPOkHlj9IgSEgBCIETC3sxnExqfc5+Pxc3XncwncJ2hxC/lPOhIhIASEgBBYDgG403iUELEwjpc/zvlTS+B1CVrGWrycg6p+EgJCQAjUIMBipvFoVchjxr8W1iQ16wO3my20hDiPD/Y0SoSAEBACQmA5BODOmE+XS+Gtu2stcG6pInK7Lv/3WyAqJgSEgBBoigDcadzqQ4s3TYf75hJ4VUKWiQi8Ch1dEwJCQAjMR8C407jUwvlPVf+6kMBJ3B8k0ybDajV0VQgIASGwOQgYh1q4askXEniccNsM4/R0LgSEgBDYRASMSwmr4k0wWZrAmySqe4SAEBACQqB/BFYicBst+ldPOQgBISAEhEAdAksRuIi7DkZdFwJCQAg0R8C41EKe9PGmKS1F4E0T1X1CQAgIASHQPwKNCHyVkaF/1ZWDEBACQmCzEaglcJH2ZjcMlV4ICIH8EaglcFQXiedfgdJQCAiBzUVgLoF7WETmHg3FhYAQEALpEWhM4OlVlQZCQAgIASHgERCBezQUFwJCQAiMCAER+IgqS6oKASEgBDwCInCPhuJCQAgIgREhIAIfUWVJVSEgBISAR0AE7tFQXAgIgVEh8MILLxTHjh0blc5dKqv/i9YlmgnTeuqpp4qHH364ePXVV1tpceeddxb79+9fKo277757qfvrbq5L5/nnny+eeOKJ4t577y2OHDlS93jn15999tkSz/vuu2+aNvieOHFiep4qgh6QV53wG/dQn7fddlvx4IMP1t2a5XVImXrneOmll6ZlMWWtfHZOOR999NGy7d56661lme23dQ63wv7uj/5b5FBKixJev359ely9erXwx5UrV4oDBw6sMy6jK9stt9zSmrzHUOjjx4+XpNSXrkePHi2eeeaZkjjaDoZ96bhKuvfff/+gg98yOkLQEDakDGHPG5iWSZeBC2Jn4L/rrruyIvWTJ08W/GN4/j+mhXv27Ck4tre3y8P+c4+FVWWXBV6FygivrRPZzIOfzk6n7FrA75577umMPLrWr216zNDuuOOO4qGHHmqbVGfPQ9RPPvlkgW59CG2FgwEZMTI/dOhQL22ojzIsSlMW+CKERvK7H6WxNurcEUMVJ57iVuVL53r55Zerfqq99txzz/VSNogNMslJzBXA4OLdNtTvIqnyC/McFm5KoSxG2tR/EzEcrL3g0sKqhpi5FuPTJE2sc2YluJaWdRk2SX/RPV1Z4CLwRUgv+fsbb7xRvP7668W73vWuJZ9sd7sn8L5Irp2GzZ+mQ9o0mhDfvkkfZSO/22+/fcYFRcemk5M/oQmdfdEMIPXgabqiOwOTkXlKAodoH3vssYXWtlnHYAzuMdbU1TzCpczcw8FgBcnPMxJIC4yGJvKuCBy/91SC33vCce3atUnwc08uX748uXTp0uTChQuTc+fOTc6ePTs5ffr0JGQ+fUaRtxAAs8/8zM9kTWHykY985K0fBoiRpx2B5AbIcZgsKIuVi7CPsoWF0Zk8AtENU7gBcvFlC2Q1QI6zWcAbYXFxBl9fn8TBGz25tw958cUXJ48//vgkDA61eoDN008/3Uf2lWmGQWVy6tSpyZkzZ8pyw7EXL14sORcegYONjysT+NhFbSMMLagrCQNe8c///M9lcqHRdJWs0ukZAfORWjax1WfXxxhi+ZpglQ4p5M26ArtDYsEt8sgjjxT0Eyxl3BnzLOv4+WXOseSxsqnnwHtFIOpyUdOnATaHDx8u9R0aJ6/HsvGsFjHDCFT8wi/8QrkCy64KDiqV453vfGcZ3nTTTeXvVtBg6Rb/8z//U4SZQXmE0bz4pE/6JPs5Wci07X3ve1+y/Nc1Y09IXZURwmbLoElfRGLpDxmmKguuDMg7JkOIG0KHsFMJ/nMOBg50MRcT+nANvcNMr7cBpctyZ0Xgv/d7v1f8wA/8QKvyUSGM7KmFwUjSPQJ9EDhtho7rO3L3mqdJMcVsooq8cyDuuAZYq6De2QWDhX7+/PnyFvRnTYTZQaoBMNa17jwrF8rnfM7nFO9///uLz//8zy8+4zM+o/j4j//4Or13Xf/kT/7kcncCYQ4S1g5yUEM6CIFBEagibxYIuZ7S6p4HAnphGLDN0sRcKnaea5gVgb/3ve8t/uAP/qD467/+6+Jf/uVfitdee630WeFWMfnFX/zF4j/+4z+K//3f/y0+/OEPF2FhtWDnx3/913+V057v+q7vsltnQkbTX/3VX52uhP/7v//7zO928o//+I/FT/7kT9rprpB8Pu/zPq/4jd/4jV2/+QsicI9G/vF1tL5BvY8Zy7zaxI/s3SZhcbJ8izZ3Sxb9sMY9iXPOG8A5S1YulDqg8HObfMEXfEHxqZ/6qXa6MKRjftu3fVvx3//937vu/eqv/uriZ3/2Z4tP//RPL3/7z//8z+LLvuzLirAyXDDl+9Zv/daZZ3gD9Ru+4RuKv//7vy9++qd/uvj6r//6md/9CVsJJUIgNQJDEjiuKJ8f5J2r1V1VL0biuFZs3z171nGv5CpZWeB1IPkRven+alabGT2pDCNvrPNf+ZVfKX7pl36pvP47v/M7xed+7ucWf/mXf1lmjd8a8kYgfavE8kL481M/9VPTe2msCNeIc/zET/xEeY0/nPO5gXe/+93FO97xjjLP6Y+KZIWAb19ZKTYyZfgMgQn7ucdE3qY3JO6tbgakeJeS3ZtDuJODEot0CPtDp7c0JfCf//mfn74AwgsEP/iDP1i8/e1vn6YDQX/jN35j8eu//uvFj/zIjxR/+qd/Wu4a+eM//uPiy7/8y8v7vvZrv7b427/923I3zF/91V9NF0exvLHekR/+4R8uw/hP2NdZcJiwxVCSJwL4ZyXtEABDb317EmyX8vBPY/QxA7cXgCgbu1ZylFEQuFlILGreeOONC3GE8D/wgQ+U97Eo+oVf+IXFP/3TP5UfisEdw+8Q8u///u+X9/iGhwsFK/2bv/mbC1wqEPVv/uZvFt/yLd9S3osO/pXrH/3RHy198KYUAwfEzf0/9mM/Vrz55pvl8Smf8il2i0IhsHYIeCsVPzJ7r8csELb1c88PuZVpFARuFvgnfuInNsLvZ37mZ6bW7x/+4R8WHPPEv6rNfd/0Td9ULpJ+//d/f/GhD32oeM973jN9/Nd+7dcKr8eP//iPT38j8nd/93fFn/3Zn5WuExZlJUJgExAwI4uy5r5g2aQ+PGnnPBiNgsBfeeWVEvOmL+jwppWX8Hp78Vmf9VmlC4XFRaxwdongjsEH/p3f+Z3+9jL+fd/3faXvnMHABNfKV33VV9lpZWguHj6/KxECm4LAurmh4vWvXOtxFAT+f//3fyV+n/AJn7AQR8j5X//1X6f3/cmf/EnxpV/6pdPzZSLeZ85z+Mc/+MEPlgucdenwHXVEBF6H0HLX8UdK8keAerKtmBbmr3W1hljf3gJP8TJUtWa7r27vvpTfFV6TR8y6nache8dNvud7vmcheYePxhTs/TbitWfZA4oPG+EFoy/6oi8q49/+7d9e/NzP/VwZr/pjxE26EiGwKQjEJOd94mPDwH+ffN++fdkuYILrKAjcdnOwHW+R+HtYjLRtgfFzbC3khR38WxC0bSXkvn/7t38rvuZrvqZ8BKufl4uwvs198r3f+73lwmacJuc2EBiRV92ja0JgKARiYu0rXyxwyM7EFgDtfCwhvnyve667TwzP7Ancf1PkhhtuML1rw5tvvrncg80NED+kGz4lWfzFX/xF8Ud/9EflXu2v+IqvKPdos30QImeLITtVEN7u/Mqv/MrpIiguGBYt+YgWAwL+dOTrvu7rygXO8sT94T6El34kQiA1AkMtKJKPf+GFGay3ZFPj0DT/Bx54YOZNUt7nyFmy94HbB2YAsalV+0M/9EPFb//2b5dvTPLWJEeV8N0UPnxlr98zWLBtkO2DCFb3Z3/2Z08fxcLgg1tY7AwO3/Ed31G+1j+9IUTsf4XKheJRGVcc8pEsjwAEzv5v67OQITOAoWYBy2s8+wRuH+/6gRty3oGC9tlb4EbakC2fl20iLD7+zd/8TfFbv/Vb5Yex/DPsOoGweRuTb6p893d/d2H/zYa3Nz/t0z6tvJ293+wJj4UK/fM///MC10rVlxN51R8xvePndd4OAS1qtsOvz6exwj0BkhefZo2v9anDqmmzi4YBx4QXefyMwq5nF37sHzuUgf0HCP4bBP8VYl3+Iw/lCjtZyjL58tbFuX+RhA9o1d4SVuEnYWG09vc+fggNa/rfRvr4rzV96Nw0zb7LBl4+j3X6jzxx2Zpi3uY+/vuNx5N4cEW0SbLXZ/lvQGHwmeocZtqT48eP95qn/iNPaBVNBQsb631np5nHyCzyeenP88d/yZd8if6ZwzzwMvttKD9ximKncAFgufIhKy/4kvnGNt9L8S/9+HtSxLG6Y783bqCxuH2yd6GkqFTlmRcCfnfDEJqlIL2+ypWKLPmQFS/U+bpjbzXXIXLefk758g//gengwYO7FlrH9gVFEXhfPSdhuik7Rh/F7tsaIn3/Heixv4ji6yDlgixb8GiL/JtDLwwqWLkQKDNjLOAhLHPqlYGDAcR0M70YaBhwGGDGJM18CmMqkXQtP4M7BhKq6thVrzDbroY+q5Zpvy1iYSky5ecYm0COYMgiHHG/pzlFWZjNMIiwkAnG9oU/0wUd2W7IgTCY+iNuI+VNC/5Qf+TD4EGccN5ARh7kP8aZ1xaeesPDooS8kGIHOyr8wR5n2y5nzypMi0ATv31aDbvJHSupr5cr/OvgaItv3Kz/eQTQTcn6TwVSh9BSCkSO9b2MgQGxcvj6sDJQHiuTj9vv80K+Wc6gkmJn08mTJ4u9e/eW63IW7tmzp/xi6vb2dvmP261PW1hVFhF4FSojvDavkkdYnFqV2Zvbl2UMAdCZYyuxVpkR/YCLgEHIBqTUqoM1+kDo+KOHEtseiBHAoJBKROCpkM80X6yTIVwNqYsftnf1SkJM6SHxKldO6rKvmv8YXASQubk6IPcu8Ye0qVP824Q5iAg8h1rISAc6AFNTCIhp4Tw3w7JTzb6KGXemKr0oD1YaB/cT9i0xibPAuWirIdZcE4sOC3hRWvPKRz3HAvGhM0KcgRzSZqbSVK84zRzOrT1Y+Sz05fR6Msvw/nPKHrcxf3/KuAg8JfrKeyMQgDBycTlsBOAbVMiuCHx7gzBTUYXAUgiIvJeCSzcnQEAEngB0ZSkEhIAQ6AIBEXgXKCoNISAEhEACBETgCUBXlkJACAiBLhAQgXeBotIQAkJACCRAQASeAHRlKQSEgBDoAgEReBcoKg0hIASEQAIEROAJQFeWQkAICIEuEBCBd4Gi0hACQkAIJEBABJ4AdGUpBISAEOgCARF4FygqDSEgBIRAAgRE4AlAV5ZCQAgIgS4QEIF3gaLSEAJCQAgkQEAEngB0ZSkEhIAQ6AIBEXgXKCoNISAEhEACBETgCUBXlkJACAiBLhAQgXeBotIQAkJACCRAQASeAHRlKQSEgBDoAgEReBcoKg0hIASEQAIEROAJQFeWQkAICIEuEBCBd4Gi0hACQkAIJEBABJ4AdGUpBISAEOgCARF4FygqDSEgBIRAAgRE4AlAV5ZCQAgIgS4QEIF3gaLSEAJCQAgkQEAEngB0ZSkEhIAQ6AIBEXgXKCoNISAEhEACBETgCUBXlkJACAiBLhAQgXeBotIQAkJACCRAQASeAHRlKQSEgBDoAgEReBcoKg0hIASEQAIEROAJQFeWQkAICIEuENhoAn/ssccKDokQEAJCYIwI7IxR6bY6v/rqq8U999xTvPDCC2VSk8mkePTRR9smq+eFgBAQAoMisJEW+MMPPzwlb9B+6aWXBgVdmQkBISAEukBgowgcy/vw4cPFU089NYPds88+O0PoMz/qRAgIASGQKQIbQ+DmNnnmmWd2VYX9Zi6VXTfoghAQAkIgQwQ2gsCbEHSTezKsP6kkBITABiOw9gReR8z79u0rjh8/Xtx3333T6rd7CSVCQAgIgdwRWGsCN0KOXSOQ9/PPP1/ceeedpT9cJJ57M5V+QkAIVCGwtgTehLwNEBY1PYlD+Gwz1O4UQ0ihEBACOSKwlvvAlyFvqxRIHIucLYYIJH7w4MHiueeeK6/bfQqFgBBIiwD9+8SJEyspwcw7lkOHDo22j2+Fl1gmViCLEl6/fn16XL16tfDHlStXigMHDthjWYWrkLcvwP33318cPXp0emn//v0i8SkaigiB1RBg9xeki2FEH50nzHyHnP3edtttxYsvvjhPpc5/O3nyZLF3795iZ2dnGu7Zs6fg2N7eLo+tra0yXwurlFgrAm9L3gaQSNyQUCgE2iMAGd9+++3tE+oxBTNee8xiJumuCHytfOC8pDNvwXIGwTknuFOOHDkyvaNuYJjeoIgQEAK1CIzhMxX0+THK2ljgDzzwQBFXgt9tskrlkB7pmsidYkgoFALNEKizvm+99dYC14UdPrWqa/73ZeLz0mLNy3zp3DekG6UrC3wtFjH7IG8aCa4UxEjcLPGxLmzi22eGwsB09913j2rhBr3vvffemd1CZeUM+CfGD31oExwpBZKkPv1OqpT6+Ly99d3WoPLpdhF/4oknyt1mpAWG9Avr812kP0gawfczlbBwOeG4du3aJCxUTi5fvjy5dOnS5MKFC5Nz585Nzp49Ozl9+vQkjB7TZ1JHAuAsws4cd9xxxySMpp2pFtwpM+kHS3wSSLyz9IdI6Omnn54pQ4zZWM5T4T4G/Lps8120SfTx7SoMMF0k22ka6GQ60q/huSHk5Zdfnpw6dWpy5syZMk849uLFiyXnwr1wsPHxPH1G7QOvsrwDeZcv6TAl6koYlat84ozYYxHcP+sgqazdMeBXtUUuZZ176xs9HnrooZTqVOaNFc7MAKFtcT4mGa0PfB5599XZ2AoFmZ8/f35axzTKxx9/fHqec+SWW26ZTvfNB+n1PXbsmD9NEmcA9vXH1DZYK1NdggVeugumFwaM1OEX69inSnG94Vqy9sh+5qqPtfWpT13aYOJ3ntx1112lYVV3f8rrDDT2j11oe2HmMNMG+9CtKx/4KAkc0nzyySdncDXL23f+mRs6OqHD4G+0TkOysYXeUVadJkPHZpeOySpESKfkWFXAbVnhZSowRyCvNvkvm7e/f1X8VrGKacMssDUR2p69t8BzwQXQ5LHe74n76CrtrXclP5YBljczduvTjzzySBHPHrrWpSsCL7x/xXwuOfvAY390AHaCz3so3xV4hY9gTcK0a+o7Q4fQ4QbVwddbk3iwzqb6BiJs8kjye2IfKnWfSnLFL+4P+OpTC30xDCajam+BtKf6onvffLKRPnB8zrYjxEbEoSxvy48Q6wjLynxnXMNK9P+mjWu5CFYr/7TCBKttDOLdAWDNro8UkjN+MSYesxRYkSd+ZL9W0bc120U5mTFYfx6VL9yP1jlb4LGlESptcMvbY0W8yhJn9A7TxfjWpOfBRz+1LsANy3YMEqa1U70ffPDBZCrnjh8zUOqVg/aXWny9jWW2B2ZDWuFdWeCjcKFAiNZALRzabVLXKSBxGqnpZWGwOuoeGfy671BhMWnw/FfJMN62B86pJHf8GNys3RGmxCo2tFK6vZZtL7hNvGsUQu9LNobAaYzen0YDzYW8rXKpeG8FWWcK09vefWmmQ10IfqYP4Vg6VC4+5zHgFxs4KWcrrAVZexuT9W39x1vhlKOv2epGEHi8GAKguZG3VXwdiWO9pbSIvHWGdYGeuQudxkiAMCUhjQU/jxdtLoWMYbBbhAv9w1vhGGF9SFcEnu2LPCwksCjoF0NYZGAhM1jkob3mJejEwmYYYGYUYwGMrXDonUJsixl5s+CVI3YxLjFWKRddx4Ife8BNaHMcQ4t9S598g/VdpKy3VctO//ALwywK57AwXFeebAk83tEBeUOQTffH1hW4z+t1JE6e7J7h8ANSn7qQNg3P5zeWDuVJEyJIVedjwi/eYz806dA3OUzGsPPEdI3DWHcGJt+P4vtTnmdF4DQ63oiC6OzlDcAZA3lbJc4jcSxLBqahxHdiiDDu5EPpsUw+6OytR28NLZNOF/eOCb+4bv0g2AUWi9KwNxm5j/46FmOhqlzBBVXEM5qY1KueS3LN+3dSbiOM/WcBjNIPGhpDUh+yx2eZOL40/6EcKw/hEEL+Ps8+V9S7LI9fvET/vhaRFuk8RvxYNPR1ThmGkLDveybfHD9atSwO8cJw1/127X3gAbBRWd7o6wVLnJcDUom3HtFhDBYR01T/whHrCVhDKWSM+MVWeFyGPnDEMo3becpZU1dlBMt4PaurtLtMJxsXCn7OGDA+hpPK/9kWZMgofmuUNJleDiG+86YkwmXKmtPi5Rjxi4nTl2GZeljmXu/u4rl4EXCZtHK6l3LZP3tAr6H67dIY+KlFShcKejDlC2QzMx0LlqNXcTRx9A6VMT1wBVG2Ib5VEU//x7L3OwzWU7zALhf3yVjwo95pZ77d9e1GoY7iPHN7E3kV0ojdn11vBe7KhTLjkE1N4AC9DiROh/ediAbedQOY1yjj/PvuxPN0afpbvAaCLzyVjBE/wyomniEMhvjll+B+MHVGGTIo+f7bh0+/KwLPxoUSACulahcHU+sqd4Q9k1PI7hm/HzaQd7m9akhXkN+BEBrfKPd+x+6AIet4jPgZPjFuQ7hR8IOzy8kk3lJo18cSxjtO4vOsyuGHyBwscNOnajqY8o0802teiM6xG2Do6WRsPQxhgc3DpOlvYeCeWj3MWFLNGsaKn8fZuzTAdQiJd22M1Qqn3fm22If1TX2srQVuo5tZ4liwJvwTh3ihy35LHbJoGb98FKbiBavZQ4q3uLCKYotsSF2a5oXO/kUJdKb+U8gY8Ytx8juOwNW/UxHf29U57Zz/umMyViscfvFtMWvrO4CdnQvFGgAhbgcagidxXCm5kXgVeQe/YOE7ki9Xn3E//R8DeYOFJ03OU+BGvsgY8fuo5m/9jfEbqr/E+fiXe97SLu+Y/09fuB9TbWNtjJKfXuXkQvF6scDlp4WhcBMWmnKQKrdJX9OuReWNFwKHXDhdpNu83/2UlZdRUslY8avCy7/UE0io6pZervmPf9FPx9IGASN2A+FO60vW3oXiR6BcLfEqy5tpZGyJ+LL0Gff5svd7yIXTVcuFzn7KGluPq6a7ynNjxK+unP7lGvY0x/u1655rex2Xg58xj+m/vPsZA/04e+ubyvIjTK4WuOnIaB5b4qkW6aosb/Z5p1p8AyNvyfJfZMYgubw6P1b86uo4Xowdsj3k/h+MqjCLre++eaUrC3xUBA7wMYlDWkNP06rIm4ElJXnHe5f7nP5VdYBVroEXNoQdOe39HgN+izDnvy8ZtsSHFO/CCWsxQ2a9Ul7smjGs6Mt9S1cEvhOUHpWYO4VV7/Pnz5fTb3Z/hBF0EJdBlduEKSOLral2TlCBfvENPfz5vApmmjjUVJHdEN5dEk/rUy66eryWwS/GduhdR5Y/uMa7Tba2tuzn4tixY+WXPllcH0Jwpdi7GyxS0z9SYbOovLRD9DNJ6cYzHRqHfqTJ3YXidY2nPENY4lWWdwB6kNfjfdnjODMQ9Bj7keqLieuCX5P6j9tOn+feCg+GV59ZtUqbTQceuyFm9F1Z4FlvIwyg1gqjOfusTcwy9gtR9lsXoaUfWznokNJypGyxJdtFeVOkkWoGsy74paizeXn6PdT0m7765jwdFv1G3fvZ11gW/6fl8kPXmCxw0zv2/YaCTbjWpdRZ3l3ns6rO62BBplwAXgf8aPeLjhRbNL0VHlx1SdeJqvpXbH0PtdjblQW+RaGMzS1KGMh8ely9erXwx5UrV4oDBw7YY8lDRnbzt5ky+LECwdrpyuE8yzsnXxkWTvxCDBbtMlsJm/ooyQtcVhHva7Tn0ZNZzFC+eMvXh1X4gd2iWUGTe3w+y8axEJedIVRhTL5gvEx7WFbXqvuxwv32PHzw3jKvemaoa+DKJ6u9BGNtYZ37+1eNnzx5sti7d2+xs7MzDffs2VNwbG9vl4etYVhYlddaEDgF64PEx0LeVRWra0IgBwToQwzMbDhAGBD9HvUmOi4yLFY1KBjo/GAXdkHtMoKa6LfKPSLwCtSqSByLgx0qiyypODmRd4yIzoXAagjEVvhqqfT/VNj7Pdh6VlcEPtpFzKrqrHKbMDqzzXCZaSjPMLUi9IJLhjwkQkAINEdgkQXdPKX+7gy++sHIu8tSjG4f+KLCG8F6nzhEfPDgwUZ7xY3wYx+vyHsR8vpdCFQjwCwYggwLd9U3LHGVdLpaK6Gvm2snF7/8ElCUt64dgVOqKhI3lwhEXLftT+S9bPPR/UJgMQK4L5eZAS9OsZs70Ik+DzcYZ3ST8nCprM0iZhVkVT5x7quypqvImzcs+RjPWCu3ChNdEwJCID0C8oE3qAOIF7KOBfeK39oE0eNi8W4Tez1e5B2jp3MhIARyQWAtXSgeXCNg7xPnd3xeTKH4bGT8m5H30Htmvd6KCwEhIAQWIbDWLhRf+Dp3ir+HuMg7RkTnQkAIdI2AXChLIlrnTvHJ8B0EfOGyvD0qigsBIZArAmvvQvHA17lTuAfy5q2sZV/48ekrLgSEgBAYEoG1epGnCXB1lrjIuwl6ukcICIGcENg4Agf8mMTxe8vyzqlZShchIASaILCRBA4wkDhfXeTw2webgKZ7hIAQEAI5ILCxBJ4D+NJBCAgBIdAGARF4G/T0rBAQAkIgIQIi8ITgK2shIASEQBsEROBt0NOzQkAICIGECIjAE4KvrIWAEBACbRAQgbdBT88KASEgBBIiIAJPCL6yFgJCQAi0QUAE3gY9PSsEhIAQSIiACDwh+MpaCAgBIdAGARF4G/T0rBAQAkIgIQIi8ITgK2shIASEQBsEROBt0NOzQkAICIGECIjAE4KvrIWAEBACbRAQgbdBT88KASEgBBIiIAJPCL6yFgJCQAi0QUAE3gY9PSsEhIAQSIiACDwh+MpaCAgBIdAGARF4G/T0rBAQAkIgIQIi8ITgK2shIASEQBsEROBt0NOzG4XASy+9VLzwwgsbVWYVNm8EROB514+0ywABSPuxxx4rDh48WB7EJUIgBwR2clBCOgiBXBF46qmnigceeGBGvUcffbS0xI8cOVLs379/5jedCIEhEZAFPiTaymt0COA2qZJnnnmmtMblUqlCR9eGQkAEPhTSymftEIDc77nnngIrXSIEUiAgAk+BuvIcLQL79u2b0f3VV18tXSwPP/zwzHWdCIEhEBCBD4Gy8lgbBJ5//vnijjvu2FWeJ554orTGIXSJEBgKARH4UEgrn7VA4M477ywXMB988MFd5YHc2akiv/guaHShJwRE4D0Bq2TXGwEs7ueee6649dZbZwqKXxwSl198Bhad9ITA2m4jPHbsWC+Q0UE5quTQoUMFFppkMxC4++67S2v7oYceKo4ePTpTaLYe0gbZargJguuIfqH2P2xtZ0XgbM06ceJE2Sma+BKZqja5byhIsbpefPHFobJTPgkQoL35vd/Eqfd77723uP/++4vz589PteI6bRRL3T8zvWFNIvRbBqy4L952220FRxvBLVUlXaRdlW7VNXRgsKYec5OtSRBTyqKE169fnx5Xr14t/HHlypXiwIED9lgnISCxJWvsYhiOvRzS/6MI8NKOf/OSTkxnrhIIDBJ/9tlnZ36GvHluXa1T8OhrxjsDZOKTLvv2yZMni7179xY7OzvTcM+ePQXH9vZ2eWxtbZUltrCq+NtVF1Nco6Osg2B1STYTAYgaaxS3id9uCLHLL76ZbaLvUmfjQsFyiUdxOoFZLXVWD53G7ukDrCbpkz+uHwRrjbJINhcB6p/2SujbNG4GrPN1fgX/rrvuKsueqvbpi/TZOmEwbbpLCJ9+vLZRl26q61kRONarb/AsDo3BMrc9wFQilU456LxDCnnyMknsh1xWh0UdoCq9usG16t5510iHzsVg+P73v794z3veU96Oew2M8TOPZVEQH63pTRs23zgWOtcpB+VZN6HP5l6upvpRT7kTeBH8OlMJfu8Jx7Vr1ybBzz25fPny5NKlS5MLFy5Mzp07Nzl79uzk9OnTk+C/mT7TZST4CfHHT48wkk7ComCXWfSW1n333TejN3gNKWDlsVvX+PHjx4eEdfL444/P4EobXVZow8EynUmH+glkV/arZdPL7X7f1sBrXSTmoy7L9fLLL09OnTo1OXPmTNkG4NiLFy+WnAv3wsHGx/PyzcYHHhpBOfUKREi0FKzJsbyijIVofk/05nxIaWt5D6lrm7yY4QwpXbjnzBqPX/6hjeAbx9Ibq8T1sSntMJf6ysaFYoAw3WSaGU85u5qmWz5dh/jdmD7ajoUnn3yyPJ/nj+taB0sPPySk4ad/XBsSwyZbPOn8wRIxtRuFKfBspFiDmyBsBgTaibVvMGD3FdceeeSRuf7bBlkMfktM4GMejAYHr4sMvXluJnsqF4rpEhryzHQzNHr7KesQt0mwwqe6U46hJLSFab5M/eLp35C6rFrmuN4pQxcujFX14bkYR87bCm6g8D2VaX1Z3YVBt8yvbfpDPh/jM4Z21hSfuGxNn2ty31q6UGxAwhrxryhjzbFIl7uYFW56YoWnmlLG1nbTlXfTPYeQMnThwuiyLLHFuUralAlLNXapmDXexWL0KnrpmfEhkJUP3OCDCOPdJ7gmUpGh6dUkZPBJ6Quv03EM2NXpntP1Lgic8tDGcak8/fTT0/Zi5VwH37iVRWG/CGRJ4BSZbXj4bU3oODTs3CUnKzx3rFbRrysCXSXvPp5hSxtl4js6XriGb3xs1jjtXzIcAtkSOBDEbpOULollqiRXK3yZMuR677oRODhDeizcB3//6K3x3FxeubbjrvTKmsDZSREWRaZlxQ0wRisc9886Es+0YhTpBAEGftYq4n8YMVZrvBNQEiYyBrdj1gRO3cULmmO0wilHiv3sfiEYHST5I4DRAol7w8W0lm/ckBgmHMPCf/YEzvTSu1IYFeMFzmGqc7lc0Nu/sssUmWNIgQwk40SANh62sc3sxqIkuVvj8oEP296yJ3DgYDuZ33KFFT6G0TEeaMa2IDVsU8wzt5Q+Xdo97dy/nWwo5WqNp8TLsNmkcBQEToVAht4lcPjw4ey3FWIB+90FWE8xqW9SY1umrLEfeJlnu7w3tUVpM9Cq7Ya5W+Nd1oPSqkZgNAROQ/bkR+Pl85y5Cz58L8weUsiyr6yn0NHnmZo4vS45xHHHYY37rbWml1njY3lXwvRW2B6B0RB4VVHxKefuSmEanIM1yYAnaY9AyvbGjI43ONluGIvN7piZSjYHgVEReLwIyBuPuVtqdCz7Zw80K3tLc4gmxuAh6RaBHLaWMasL31OpbPvh07XdFlipZY3AaAicjuP/1yBTScgx950W3u1DS8CCkjRHQIPQbqyYBVT9E2HujF12u5/WlXVCYDQEHlvfEOMYrG//SVd2E2iVvr77MCBL6hHAiGEnE98Qj105zOxYMB/6P0HVazv+X8ZgbO2MBWZPhEN/23pVjGLrOz5fNd11fU4EXl+zGDBVVjfrKyxi5jJTYZDJ3bCqR3l8v4zCAmck9KPhGIgwdvlgfad09/gtmONrppurMe2Ihcl42ywWN4uZWOK5kDe1FM8MNrfmhin5KCxw+y83QAIR5dRg66qJt0fpfCapB52Ug4dhoHA5BOqsbowBrG5ZusvhuY53Z0/gsfU9lkUav987lfW9jv72MQzebYmCgR93Sbzuk5u7pG05+3jeZr7whrnkbFZg/QFjhnaEK3bshk32BO6tbyp8DIs0vvGgcyrre2wW2tj0pW67FgZ+2oufveEuwXBJ1Y66LmMf6bFGxqzEyLoqD++Gte8rGZnzopR/a7rq+RyvZe0Dj61vLNkxdHI/6KzDKD9UwzULaaj8csoHa9H+ubEnb9oPpCTyrq4tiPv2228vDbt55F399Ec/DgaZQ+CkQ981y73umZyuZ22BeyIEtLFY336kT+ny8XrYf0HPqfE11QULdMz6Lyon7Rzr0RM3ZYa0U7afRXpX/Q6JDuHmgmRZ2K0jbfDDIOCIjT76Bc/Hn5fgGphzwDVjaHPZEnhsfY9l66AfdGhE/pOyVQ2+j2tVnaiuofeRf9dp0gmPHTvWdbLJ06NO8HXHdUNbxyoco3/WD0J9AVy3uEt/g3g5mszmIGx4Bqzj9sW1MUi2BO6JECAZFXMXaxCmJw0phfDqPg0ytjDiRppCN58nROXljTfemJ5i/Zi+OVlC/rMIU2VXiNC+q9o0WwPHZnX74oMPJB5bvf6eNvEq3CBuZjAYS8vkywBJH+Wg75IGxJ1Te1uI1cTJ9evXJxzXrl2bXLlyZXL58uXJpUuXJhcuXJicO3ducvbs2cnp06cnJ0+edE91Hw0fsp8ExadHWH3vPpMeUgw++qnO6B++V9FDLtVJerzWOR4+q1oNQI9XYzzbZEWbCNbhTDshfdr4kO2lTRn8s3FfpSyUL3yTxd/WOl6HW/g/ASU3tc7gYwnAc+G/Ie2qH8rVpQTjanLq1KnJmTNnSv3h2IsXL5acC/fCwcbH8/Kd0coeSE3gwYc2A+CRI0fmlSGL32iwvqMPPej4vNc5TucaWmI8V80/WNwzbcTShYTGKnG7tzIFS3gSrNnWxSL9YCFX4tZnWyDf2CBrXRiXwNoSeDyihxd3XLHzjcaVHabCgyobppGVjdw61LqEKazUGLtlKxYyiI0S0qTOaO9jF8qAwRLjxDnlXoXIqec64ga3oWZi6EHf7nqw6IrAt2g8AehSLEoYrPHpcfXq1cIfwcQvDhw4YI91GrKVB3+UCf+JJMVCoOXfJERf9PYSpmJL+eP8s6vEWYyxnQz4UMEMXyQ+PfyC+PlM0NdjbNeHDuPdCv/wD/9Q/PIv/3Kpxhd/8RcXN998c1kGFq04uD9+uWUInbe2tmaysX4yc7HmpGpfN7ey59jqpubR0V2mPPj147UXCkIbpP44WGDkjWq/SMt6B+2V+qUt17VP/rUieSzj684RyOCGLvbu3Vvs7OxMwz179hQc29vb5WHtzsKqcmRF4DQAVuVNqKRlF3RoHMtULjsA2q6c0+A4TOicKYjG8lfYLQJxB2pC4BAQbdm3C7SyBTc/oHarbfrU5hH5qtqx4A1xMwCsg3RF4Nn4wJlmBuKtnIaFChvV9aGmd4FIJAMgELe/RVmyZlPVlse6ULmovHW/z3OtxJjWneO+WAc3U4xRVy6UnQBcFoKl0tYSzqEgTA1zd/nkgNNYdIgt6Hl6036rvmHCM+sy9Z9X/vg3rGVmuBxY5cxKq9wr8XPMYHmWfuTdLPF9Oi+KbAicCoP8mlTwKhUX+9xWSaPuGRqo7R1lmifZPAQgesg79t3iMoG8NnlQx63J+gyHuSwttJZC/0csLE/0ZyEC2RA4I23c+Bdqn8kN6G0Ncp19m5nAnZ0aVS+XoGRwmZRWp6zIt6oMMkdE1G9h0iaWDYG3KUTqZ+mg6qSpa2H4/Bm4677HgcsEi1MiBPpEYLvPxJW2EBg7AnXrMrhF6v43JVtfRd5jr/lx6C8LfBz1JC0TIYBrLBas7qptonKZxEjpvG8EZIH3jbDSXzsEqsgblwlkL1fa2lV31gWSBZ519Ui51AhUWeBeJ+0y8WgoPjQCIvChEVd+a4OAXCZrU5WjLYhcKKOtOik+BAJ8yoF3CGKRyyRGROcpEBCBp0BdeY4GAfYr++/x4DLRLpPRVN/aKyoXytpXsQrYFgEInD3fbCnkTVstVLZFVM93hYAIvCsklc5aI6B93WtdvaMtnFwoo606KS4EhMCmIyAC3/QWoPILASEwWgRE4KOtOikuBITApiMgAt/0FqDyCwEhMFoEROCjrTopLgSEwKYjIALf9Bag8gsBITBaBETgo606KS4EhMCmIyAC3/QWoPILASEwWgRE4KOtOikuBITApiMgAt/0FqDyCwEhMFoEROCjrTopLgSEwKYjIALf9Bag8gsBITBaBETgo606KS4EhMCmIyAC3/QWoPILASEwWgRE4KOtOikuBITApiMgAt/0FqDyCwEhMFoEROCjrTopLgSEwKYjIALf9Bag8gsBITBaBETgo606KS4EhMCmIyAC3/QWoPILASEwWgT0T41HW3VSfGwIvPDCC8X58+dr1d63b19x55131v6uH4RAjIAIPEZE50KgJQIQ9bFjxwrCl156qQxfffXVpVLdv39/SeZ33313cejQIRH7Uuhtzs1bkyBWXIsSXr9+fXpcvXq18MeVK1eKAwcO2GMKhcDGI/D8888XR48eLQgh7a4FQr/33nsLCP2+++7rOnmlNzACJ0+eLPbu3Vvs7OxMwz179hQc29vb5bG1tVVqZWGViiLwKlR0TQg0QACr+sknnyyeeuqppUn7rrvuKnMgjRMnTjTI7a1bIPOHHnqoePDBBwvikvEhIAIfX51J4zVCAGsbEp3nGrn11ltLixm/NgfW8yLBgkdIlzhHHcFD3k888YQs8hKxcf0RgSeor9hauuOOO2QBJaiHlFnSBg4fPlwSa5UetIn777+/dHfcdtttVbcsfQ2XDET+zDPPFM8+++yu58nvyJEju67rQr4IiMAHqBs6K5YWHYcOVCVmXeGXbGJhVaWha+NAgPZwzz33lIuSsca4RB599NHe2wBkTj60Sy+0vaeffloGhQcl43hXBF6wiGkSFi4nHNeuXZuEhcrJ5cuXJ5cuXZpcuHBhcu7cucnZs2cnp0+fnoTM7ZG1DF988cVJsGomYYrKAm/jI3SiyXPPPbeWmGx6oWj/YbDe1RbC1r9JIM7B4aGdkbdvn4888sjgeijD1RB4+eWXJ6dOnZqcOXOm5FY49uLFiyXnwr1wsPHxvBy0iBmN0ixKYeFgbVUJe3WZGtf5JXkGa4gpbVdT6Co9dG1YBPB30za84C5hZpZqIZFtigcPHvQqFcH4yKLd4ephcRdscPHME1vQnXfPuv0mC3zesLTCb1hYYZvWjEUTGk15HtwjlZY1VhBWT1is2vUc1nsKy2yFouuRBQgwI7O2YCF1TptJLbQ/04mQ85QSjJ+lZ65e/1zicEFYIO6tjruywOVCCa39+PHjk2Atz3QEGhLETedtIsHiriTyYLk1eVz3ZIxATJK0Deo7B4kHl/DSTxK16EO4EHMh4K70wBCjbF2LCLwjRKkcKslXOL7FVTooFhkdyKdFHN9pDtZaR5BtXDL/7//9v5k6xfrOSbwvnLacQqrWB+J+MNZzjLuu+29XBL7Rr9LjQ2RXgfd349fEd8fukmUldJ5yxwrP4zO1715YPsHlksxfumxZ7H57JdxjRDnBZxN8l/i4f/d3f9fgKMPc1jbe9773FR/60IdK3agn2tsq7XemkEuc0N7J04RX//F78+aoF9PNX8s1zs4zW/Ng5w/77Vkby078aG2rnil3oeB3Yiq2igXsy7IoXmV5B/LubKQlfW8ZhYovLfGmLplF+vf5e+iQjafD+Aq5f12lyn2Cay0nee973zszQwgL7IOqBx60bzsGzbzHzIKBMi0T8S6lKws8Kx94GLWngNEY+iJxpkOx26RL8raKriJxypWrQMRVawHWMeeFPFdH5MGKnfgj1/JX6cVCtC93+E7F5IMf/GDVrUmu0ca8fsS7nu4vKph3n9AO1kX6LNfaEXj4rsOuhgjJ0kC7FBq3rxgaPJZy1/mYzlUdzH7LKXz88cd34R8TQ5NzOjCzKBZvY5z989zHTKuO9HPBhp1GXm/i6M711MLgEhsi6De0xPgMnX8f+cETfZZr7QjcT1c8cDTQLt0OMan0Sd7WsHx5iOcmVSRFfUAQVdYcgxKEz9Q5dhPFZW1yDpH3NYC2xboKGysTbYkBqMv22UTf4J+tdXEFf3iTJDq9J24DnSaeKDHqtM9yrR2BV/kafUdp20kgothFMwR50/7iwSlRm6zNFovSsCaEmJcRiL5q941Ps0mc+qkaMJbRpet75xG4LxMYoj+zjy4HI9o9hM3+atYbqixurwdtbWjx+ffl9hy6TOQXu8+61KErAh/FLhRWuHnjLHSmlVbXWf2Ov2ERyLtgh0GwokL72zxhdwmr62BLaBIIoAhWpZ02CtltwMHKfSCx6e4bHg4Dc7nzBpzJhwPcqZP4bVby5XfqOVd597vfXXz4wx/epR56x7iFmcX0vkDwBQcSSHja7sDCi9+pEf/m77N42NJYplX1kSu7Z8jQyjhknn3lRT1lL35USbkLJbbAsejiKUwAc+mFTayh2GoZyvI2bHOwwLHisBBxV4Bj3YHF2UawoLHgObBg5gl5xdigF3rmIljAHqsPfOADE9pqVdv09/Ud9/j6vgOeQwv74q28bdvP0LrPyw/usHIRdildWeAzWqUk8Hi6QqMEQHaHeBCJQ0KLGgodDyKInyU9fhtS4gXaIfNmSh8PYDEmdg42KYS6jOt5EfkPqafhQ0i7RBioiHvy8vd1HWfAwKhh7SFuv+hh+aUgcL+utKhfluCN5A9lMVwJu5SuCDwbF0rVdIVpN1N8NtA/9thjAcOPClNLDn5n6k7I8zb95Bmm87EEq6XckF+VV3xvl+dD54fuYPHAAw9U4lBXNl4+SiG4GqhPQnOr4I6gbnMV6pR2yYH7BP3tCJ2ztdqBsEs8wISDNl4n5JtKrM9Z/uiCvpJhEMiGwOcVl05iflbfOSBqjkVCZwiWaBEs8kW3rs3vlLdqEOPfcFURo/fRpgABQkRn1ioQfLqQQ4rBb9nygx1ty9oXhM4Rk5tdt/Q95maE8JuP2725hvHgMYb6yhXLVfTKhsDnWRgUjN/pAJASHZ1FuEXCAg9WJR1rkxoWg5qfsYBTcFGUi2yLcF6EaZ+/x5Yb5Yiv9Zl/V2l7Yq4aLLvKJ4d0GKS85Ny+vJ7rEs+GwGOCreu4ZonbdJUQYscyx9KmAdlhFtG6VFbTcsSWN7iAU4xx0/R033gQsO/vDKUxg5UkHQLZEPiyEEDwdSS/bFrrdn/sVmLGMgbyZpDxkkv9hoXBRjM+r3uqeFz3qfRYh3zH0Ge21wFolWEWgbFOa/3MgVmDRAikRGAM7iAR+AAtZOhpZuw6GoNVhvVtn++kSlLtiBmgOSiLkSAwhn4jAh+gMQ1N4PHC2cMPP7zrv5gPUOzGWdBR2PJowtSVnUeS/BGIZ3v5a7xeGorA16s+y9JAgOGbFNOS0cmwym+//fZym17sa57emChy+PDhciHaskdfdB2DBWQ6b2q4znU0tOG1ShsSga+CWotnWBAbQiBsT+LkyW4dyBvCzEnCW4271EHX+Ps1u27SheQIxLO9o0ePJtepKwXGMDiJwLuq7TnppGoIkHjVQkxuC4Tgw1uysWCJ8xEzyFySJwK0L2+U8AYtdYbbDrdY/D7CsqWwj64t+9yq99vLZOjt3Xqrptf3c6PdRtg3MF2mn8pPSGeKBw/bE95l+dqmxVQVXfF7s3gZf1mP6/wuyRMBDAX/Yh1tzrc76q7tIEy7oJ3w/zYJmwg6sDBO3sSr+iFp+fTMvWih5VNlYNhvSUP/gZaUH7NCjwDE9Mjlozh8tCg0wMov+YWKLz+sFRrXZJ6+qT42FH+jmw9EUZ7cJf74F+0ipfCBKGub1GVu4vVLhVVVnRlmXYZhfWfhF0n52Fd4h2BaZ23z50NrXfebrj5mlY0LJR7xAuhJhVGbKRSLaVgYWBGxjtzDNZt2cS8+wKqRPkVhvB5Mc/FXjuHlBPDkMwiS8SBAnYUvJZZvQ/epNW2afhn3RcuTfooLp+53u69JyGyVMmG959pv5EKpqEn8X0zblxUIHbK3XSDxAs+y6bW9n6mhTW2HfsW6re633HJL+XkES4cOmcubmaZTrmEqrHBzcBh5Qqb0CcTXHe2SY5HwLORph2/DkHj43PQMsZJf7LeGhOmH6ESe9E/Tifzpq/jxGRi4h7zQlWeq1o8W6Tz07yJwhzgVyw4NKjEWPgZFhdIICK1REfovJPIcjYF0aCyMQkwJjAAAG0NJREFU4F58I/TX+4jTEG1XAHrSwNEpd+GNTF8HWOOURTIOBKyuLOxCa/oUg4O1Z/oq7ZlrCORbRd5cb0rEqQ2ulXDy/ryUPvD44+ld+5x8OaviYctd5T8+wL84z79NWviWYz9kqIzSBxcaT/m/DO2ccEiJ9QoNfsjs5+YVOtfEH6FDVv4TDuompYRBe+pPlQ88ZU1MZv7xB/+VyCRe7wmWd6f/m9Ty6Srsygc+wyY5EXhXQDVJB4LwBEucBrDsf4WB6IO1uCutOO0mOnV1DwMhZfE6MKjw345iCRZIed8QhBmssxmdvH4+3scCUlzuRedenxwJPF5AXFSeMf9etSGANh5cITPtaZHRlRqDrgg8m0XM0EmSCFN19qx6wV3C9WWnVEwZeS6nLUf4+Fhgwhdogo4s9LDoyrTT9rzax6S4xvS0LyF9praLBBzRlTJI6hHYdHxoT7hYTAJ5F126byzdHMMsfeBh2j8IVpADb/v5yidviGzVTsFzkB/kj795SJ93HWjogR+QRu31MT9i1XN0CoRnu5RFgwP+brDj2JRO2CW+m5YWxokZHpQ9WOib1W78VCKlC8VPjfA5Vk3xva5t46QfyHZm2tX1dJ08YvdFaGNtVV/5efbH4jdEh6ZHINFO6gJ3lPclkz94U++4bJjy9l3nqwLnsWJNITcBW69jbvp1qU/ME74P09eGXjtbtWxduVBm2CQXAqcxUjF9dWgquYpM+qj8KhJftdK7eg4i57+bQ0b47CFS4nQOyIBzTwjEgyW+Un0E66jypYquB8uusKlKx2MBTrkJg5/XMTf9utRnngFC+x2LdEXgWxQ4VH4pFiUMZD49rl69WvjjypUrxYEDB+yxTkKm6rZFyBLEHRHIZmV3hqXjQ9wl8UeSApmUPlny60PishnOfeTVRZpghAvD9pD7NMGI38IAOJ2q4l831wzP4priwM/t3VOWTt94Wz5dhVtbW9OkKDdtMifBheA/UJZ7+2qDHW61qnaJ6w2X4Fjk5MmTxd69e4udnZ1puGfPnoJje3u7PKzdWVhZtlDZU0lpgWP5Vbkb2DHRlWVMOqQXgJgeWKJ9C/mSD2Xsa1bRRxmw7LDQPV5t42OykgzTuMx2PZcw3kKXi1596MEMKK4PzulbY5KuLPBsXCgGftWWPkiXaX8bgThTkHcbnXN5ljqJSaKqE9VdY2Bm6tu2DlPhEZcrlR51+eJu9Dp2ZfDU5ZfyehWB0zbHJl0ReHa7UHA3ILYLgjjTcba9hVF2Om3nelPhi2T2xpY9Ewhl1zX7TeEsAtQJB+4Q3CIc1AlCaO4Teyp0sjIaBsyyvnC5jFUoqxfcPzkJ7pMqN1VOOnapS+zmxH3HTpSNFT9ypXSheD2I17lUwjdKGrtUcAEEn9mMdRIqurQG4/x0LgSqEMCapc3YwUszuQi6xdb3GF1Uy+BJ+awuCIdwgS6jX9N7u7LAs3OheABooFVTJhotRB6so11kjqsk7MPe5S6hspnK4w6QCIFlEGDHjJFGWMTc1eaWSaure6tcgvSVdRfvYh1zebsi8Gx2oYQOUitMkQJh75qq2wNMqzjmrUKzSs10k2m9RAgsgwBuFHYumYRZXenOo82lEHZr4RKMXSeB1DeifeO2o+z05VR10Lbeu9qFst1WkSGep7FSaWH6OvNKuOVNZdaRNz6yMO0qnxd5G2IKl0EAwmbNxARCT/Htd/5TkX2fPiZv2vimtG/KSZ2MlbytHXURjsIC9wWl4WKR87p6mIb4n2biWNwQP4tvqugZaHSyAgK0O0jjxIkTM0/TtmhjLNSGKf3Mb21PyBPSZubIUSfBrVDqUPe7rueHQFcW+OgI3FcFVjcHFpEJnYyXLTgkQqBLBOpI3OdB+7MDI6JpO7TdPL5N+3bt87C47cBgAJGMCwER+LjqS9quCQI2A1zlv61D7F5IC+JeRXDpMBPV7HIV9NI/IwJPXwfSYIMRwFJmYT3+/EPfkNj7C5vi7+4bz1Tpi8BTIa98hYBDACsa/zTuDsL4pSZ368pRfOv42HGVyOJeGcasHhSBZ1UdUkYIfBQBI3Lb6hYvei7CiTc9IWnzo8dul0XP6/dxICACH0c9SUshUCKwyN/NYmfTBU9BOn4EuiLw7L6FMv6qUQmEwG4EzKre/YuuCIHVEdhe/VE9KQSEgBAQAikREIGnRF95CwEhIARaICACbwGeHhUCQkAIpERABJ4SfeUtBISAEGiBgAi8BXh6VAgIASGQEgEReEr0lbcQEAJCoAUCIvAW4OlRISAEhEBKBETgKdFX3kJACAiBFgiIwFuAp0eFgBAQAikREIGnRF95CwEhIARaICACbwGeHhUCQkAIpERABJ4SfeUtBISAEGiBgAi8BXh6VAgIASGQEgEReEr0lbcQEAJCoAUCIvAW4OlRISAEhEBKBETgKdFX3kJACAiBFgiIwFuAp0eFgBAQAikREIGnRF95CwEhIARaICACbwGeHhUCQkAIpERABJ4SfeUtBISAEGiBgAi8BXh6VAgIASGQEgEReEr0lbcQEAJCoAUCIvAW4OlRISAEhEBKBETgKdFX3kJACAiBFgiIwFuAp0eFgBAQAikREIGnRF95CwEhIARaICACbwGeHn0LgRdeeKG45557iqNHj751UbESATABGzCSCIEuEdiaBLEELUp4/fr16XH16tXCH1euXCkOHDhgjykUAsXtt99evPTSSyUSt912W/Hcc88VhJssNqi9+uqrU1xefPHFTYZEZf8YAidPniz27t1b7OzsTMM9e/YUHNvb2+WxtbVV3m1hFXiywKtQ0bWlEbDBnwch8meeeWbpNNbtgaeeeqow8qZs+/btW7ciqjyJERCBJ66Adcn+/vvvnynKww8/XEBgmyqU/cknn5wp/kMPPTRzrhMh0BYBEXhbBPV8icDdd9+9C4kHHnhgI0kc4qbssWy6SynGQ+ftEdhpn4RSEAL1CBiRxRZ6/RPj/mVTB61x19p4tZcFPt66y1pz7++F1GJ3QtbKr6icyHtF4PTYygisFYGzYPTYY491vmXr4MGDBSvBdFDbabEy4hvy4PPPPz+zaIf/F/zWVWLyZgB7/PHH17W4KlcmCKwNgUPe7LV99NFHC8iDeBdCWrZ/l4Up0hWJL0b2zjvvLOvBW+Lgt44kXkXetBstWi5uJ7qjHQJrQeBG3ka0QOK3b7WBCCK64447pklA3ljkdFDJfAQ2gcRj8qat0EYou0QI9I3A6Am8irwBzVt+bUDcv39/ES/AWZ64ayTzEYDIGFj9ILgulngVeTOw02YkQmAIBEZN4Eak3vI20Lq0gOqsedw1dOK6302XTQ/ZPgexrROJr0Le2ka46T2h+/KPdhsh09TDhw9P/dPdQ1OdIpb9+fPnpz9iTTKA8Op4DpbXE088UTz77LOlfgxiphNhl4PaFICPRU6cODFzifrxhEX+kDj7xe1esEOOHDlShmP4w2ANefs3TRmYKJthbeWIDQvK/fLLL9vPnYfkZ8YEoeV/33337ZpFdp65EkyDQHgFeirh+ycTjmvXrk3C904mly9fnly6dGly4cKFyblz5yZnz56dnD59ehLe458+kyJy/PjxSegsfMNleoRONHnwwQen53fddVdnqj3yyCPTdImHDjE9Nx3QB71SSfjGxuTee+/dpZfpN3T49NNPV0JBO6KuvD7BRVV5b24X0T0MgjO6UxauV0kYmGbu9WUeMk7bpG3QRiR5IBAG8smpU6cmZ86cKdsPHHvx4sWSc+FeONj4eJ7Go3OhYOmwE8QsjdARyql5bAH1aW1iOcZbxNAHvcyqRK8hhby9VThk3lV5mfUX/4aVSl1htZqAWe6uKKtfXy4sW84pU5UwC8lB0J22wYxVsl4IjMqFYh3dVwGdyEjTkzrT1WUWGe3ZuDPiBvDTXsgHYYsYv7HAaS4V0oCIOA+zgfK+of7kQhZW3qpX6+03I3EwtM/PUoeQYS6uKNOVkHplgIzJ29qdv9fHvQvJX08V9/qn0kH5dovAaD4nGy8aAQNWsN9r6z9p2i1Mb6WGZR9cJdMLEGeYnk79uvYDxD6kbzf+5GRwIZWqoG88KJmOPpxHuP4+4jaIVV0nPxvc4t+rzsHJSJzfeT4nEqd+47UWbzRUlclfgzRZlyCdKoypG8rcRBhImpCwv+/YsWMzSYfp+My5TtIg0NXnZAvvXzGfS04+cPyLoeHP+BLDQuIk9rGGTj9zT6iWXs7JOxZ0DJ16V374Hev8o3Eabc/j8rZNb8jnY+wCoWXhr61aa0HXsQj6+3bR5brQWDDIVc+N8IFjbcQvzeA7xQLE6vUyz4rhGSxSf3gfrE9nUZytg7FgRTGdjv3i+B1jf338bFfnZnFbelh8YxGwC8Q4VdfqvYm1OX2o4wh5x3WHjug6FsESl6w5An6EyskCZwU/EOOMBXHo0KG5Fi1WOfewU2RVwWLGmo8P9Gmyis9zWOmh2UwPytH3DhWsK58neoxNwqA6UwZwi2daQ5SpavfImCxvw4g24NsEbWTMQh9iVmtlIt6kT+ZY5q4s8CxdKMEvOq0kq6w2pDx0BTIIVJERxNCXrAOBV+FG/eNCC371vqCbpku7i9115E9djlHWicBjd5DxAoP8GEm8KwLPahsh01MW4/w0lRdnghVWfqQqVNooJDSqcrHJuwWYzlYtxI6iQAMpCW64x2L3FtdYCPTtomuVLH3y8oIu8TX/u+LDIFDluiRn+pXfyDCMNvnkkg2BUxH8Gy4v1nlif7e/J+c4hBP7xSHxISS3LWxNy2wkzsAdS59lqkrb2h86SdIiYG8XV2kR77Spumddr2VD4Cy6xYsu7L9OuZDVttIpj98i1za9ZZ6vIqRlnk95L4TJAmIsfS7MVqXNtr8xk/e8hf0Y2zGfVw32Yy7PMrpnQ+A0tuAjntEdAsRiXeaFnJkEEp4w8LAvPR6Abr311oRajSNrpsTxW6VYw+wZ70tImzy88F+E+nTb+Lz6iI958InxCJsT4kvTcwbaTZVsCJwKoBOFhZddn4K1r/6NpZLwmcZb0NCdRhgTeh9liomojzz6ShPCjP/9GmsJffuhITvyiLdjjn3dYl2sU9YoqsrCNX7bVMmKwKkERlNILiYhOjZ7wmM3S1xxTIXxic07qqbLcTrxOfk2IV/0rCLvsIumtCqHsIrG6j4Bu3iNgE8ScH0I3IzE/eIz7WDMJL4ubhTaNP0PIwjSZiZLPdGXh2gbMR9kc+63R+W0D5wtZezpDkDNHKEia/dUs9Uwvr/r83nbGcNMYVf+obFN2M7Vt/hthPN07FuPVdOv2nvd57bLRXqGxedddZlSn0X61v3u+8TY94HXlXGM17vaRpjlPnBfIf4TsUbGYcTd9YJH3T5Re6arsKoTMNgE98+uDh9mEXNfPPLlbBtnYLMyDjFgxPrywg17tVfJOybvoQa9uAzxeawX+K5C4mCyKjaxTsue+zJUtd1l09P93SDQFYGP4mNWVVPr0JnKRU/85iZMs9i50qeETjDjj8W1gsskdq8wvUPvocR/zIpps00rfbxPXfBDggV1wCJk068x4u/mfhOmx/iic5n6owvbWO2Lk+gZSLFcrzGd60LwYBcSaziGjW+vdc+1vU5e1h59nHQD/bRNXs93gEBXH7MaBYGDFw0S/7jvSFynQ9ChLG7b9iDQJp3FCI6OWiXkCznZwOAJnN/4Up33qUNA3N8k76r8Vr3mCXzVNLp8jpevFu3fj33LuZG34VHV9qjjRYNUneFh6aYIReApUN+dZ1cEnr0LxU9YcJPglghwzByB2EtXhXe3dOkH9n5E/PIILgNcOV6XsLBS65/35egj7vXIIQ4+8yQMcDPYDelumqdX3W+0PerXY0sZ5ol3X/jnUsVxTUnyQKArF0p2u1BC464VrGUsZaxgL1zDjTHvbS1//7Jxb2GjA/vSsbyZnpqgE5Zaqqk/Fi86xNiYfkOH5sKpyje2vNlxRB3Oe6YqnSGvUa/UL7qaLLKwcSflINYuhnTp5VDuTdBhVP+Rhwqhk9PZcVGYu4TrdK6+xBM4PltP3OTJVJopdUrBXbHIZQFGse6r6ow7y0vswqkiY/KO1wvGQN5WTmt7lD3+x8x8MqGqzPashcH+s2gZ0pa7EPJOZTx0ob/SWA2B0RG4FRNrgo4U7xu23/sKYwJsuqDVlz7LpDtkB4/zGjt5G851JM7gGHabzJB4Ews8HggtH4VCoAkCo3KhxAXCCqfTsPgVi1lI8fWuzskz+EXLmUBXaa5rOpBbbHmzyMz1JlZrbrgYiXt3ipXRD/Axgfv7cyuT9BknAqMmcCDHgqHzxJ0j/pZGm+qJBwPyIs/YymyTxzo96wdUIzZCk6G3WFq+XYZG4n7NgTLytrAvq89zjIOV11/x/BAYPYEDKZYOvkReszWBJLoSXts1IQ/yiq0r+31TQz+A2sBm5O2t0nUgb6tjI3Hf1lgviWcbdr9CIdA1AqP1gcdA0Jnwi/PSBHH/ckh877LnEDbpQdqkL9mNQGxdrjt5ewRsd4ctqpu/H/eeFw36Hg3Fu0BgbQgcMCCRPnaD2ODQBeDrmgauLPuwPi4nXAle1sny9uWyeB2J2++EInCPhuJdILAWLpQugFAa7RDwFrh3mZDqupO3IQeJe3dKjIO5lux+hUKgLQIi8LYI6vkSgTpy2hTytmYQk7hdJ/SDnL+uuBBYFQER+KrI6bmFCGwaeRsg80jc7lEoBLpAQATeBYpKY5d1uankbU2hisRlgRs6CrtCQATeFZIbng4uFL+Ns8tdQGOFlhfNTMCmzs1k9ygUAssisFa7UJYtvO7vFgGsTnYBsSNFZPXRl8zYSsiWSk/m3aKu1DYZgdF8D3yTK0llFwJCYL0Q6Op74HKhrFe7UGmEgBDYIARE4BtU2SqqEBAC64WACHy96lOlEQJCYIMQEIFvUGWrqEJACKwXAo0JPP6PK+sFg0ojBISAEBgfAo0JfHxFk8ZCQAgIgfVGoJbAsbhlda935at0QkAIjBuBWgL3xRKRezQUFwJCQAjkgUAjAs9DVWkhBISAEBACHoGlCFyWuIdOcSEgBITAaggYl1pIKj7eNNWlCLxporpPCAgBISAE+kdgJQJfZaTovyjKQQgIASGwWQgsTeAi781qICqtEBAC/SBgXGrhKrksJHAS9weZcD6ZTFbJT88IASEgBDYaAbjTSLsqtGtNQFpI4HEilvjVq1fjn3QuBISAEBACCxAw7jQuXXD73J8bEziZWYaEV65cmZuwfhQCQkAICIHdCMCdnkuNW+3a7ifqr8wQeJxAVcJ27c0336xPVb8IASEgBIRAJQJwp/EoN8S8W/lQzcUZArd7fOJcs3MLuSYfOChIhIAQEALLIWA+cM+nFif0Ep/734hXErjdZIlybnHC7e3tglHk+vXrdqtCISAEhIAQWIAAnHn58uUZPjVutUfjc7teFc4lcHvAEvThtWvXitdff91uUSgEhIAQEAILEIAz4U7jUoxh4ohdW5DEzM8LCdwStdAy5NxWU2dS1IkQEAJCQAhUIgBnwp3wqOdSrq0iuwjcEiK0OAkTtwwt8zfeeKO4dOnSKvnqGSEgBITARiEAV3IYjxrH+nBZQHYReJyAT9ziRuDcKwKPEdO5EBACQmA3AsaVxp8xkfOEcazFd6cye2UhgVtClrBlakqwmPnaa6/NpqozISAEhIAQmCIAR7J4abzpeRRuRSycPtQgUknglpCRtg+9AsTZEsPGdNwpEiEgBISAEJhFAG6EI+HKmD89t/KUce9sCvVnO/U/zf5CwkbYPiSOgmyP2dnZKY/ZJ3UmBISAENhMBFi0vHDhQrntes+ePVMCNz71BO7J28fnIVdpgfOAJWAZ2LV4BEEpDgj83Llz5RaZeRnqNyEgBITAJiDAdkE4EW6ENz2Bc27caly7Cia1BB4n5jMzEjeFjMC555VXXtH2whg8nQsBIbBRCGB5w4UIRO650vgzJnEjcgubADaXwC0hwvgwJbxiLGhyHcVx2EuEgBAQApuGANwHB8KF+L7hSDuMNwljTl0Fp7kEXpUgmVrmpowpRwiJE1KAj3zkI1VJ6JoQEAJCYC0RgPPgPjgQIjduNK600JO3B4Lry8jCRUwStI+v+IRRpE4g8be97W3l9kIKcfPNNxc33HBD3e26LgSEgBAYNQLwHORNuHfv3tKQZVOHEbgP4U5P4MuStgdqK5Dzwn+t428hzoFj3kJ8PJwT+sNGG6YRN954Y0nkELtECAgBIbAOCGCsQtzsxIO4jQc9YVvc+NBCI3HDYRUiX2iBkzgJG4lbJihhq6umQBzyu1njFNAKedNNN5WEzgglEQJCQAiMCQEWKOEy3qzEOEXM6oYXzfImXkXexqG+zFXX/O918UYWuD1sJE5ocUiaOCGHWeAWtxAFKZgVmDQ5x7VC4X2hVy2M6alQCAgBIdAWAeM1OA3ShrtwkRA3gbs4514j7KqQaxxwmz9Ipw3fLUXgZGbE7UNI2gpL3Ei7Kk4auFH4zQPBdYkQEAJCIHcEMDYhY7wLiJGzhVjdxC2EoDn3xO1J28eXLfvKBE5GkLYROYRsJG4hI5eRuA/tdwoFGCbcz28cEiEgBIRASgSMcCFiE4xOuIzfjLAXhZaODy09rrWRpQmczDzBWtyIt4rIq8jb7rPnLIzTrzrnmkQICAEh0DUCnlAt7onX4mZRe/Lmt/jcrqGnPWs6c95WViJwy9TIm3MjYB8aSfvQ4tzn45ZWHFpeCoWAEBACQyFg5OpDI2BCT+Dxuf3m70dvzk183K6tErYicDI0wrW4nRNyxCQdn9t9Flo6hCb8JhECQkAI9IlATKp27kPiMUHH59wTH15vS89fWzX+lgN6xRRQxgi2SjEKh3AP5G33x4RtacThimrpMSEgBITAygh4LiNu5xZvEpK5PRfHV1YserC1BW7pGfHG50bU9nvdOc/ZPXHc0lQoBISAEBgKASNfH8bx+BzduGbXTdf43K63DTsjcFPEkzDX7NyHPl51j6XlQ3vGX1NcCAgBIdAVAnUka9eXDdHLnulKxzid1i6UOEEU9mRbVQC7ZvdZ6NOquuZ/V1wICAEh0CcCxlOWh51byHWLW2j3+t/8ta7jnVvgXsE6EvbXfbzJs/4exYWAEBACfSBQRcjkE1+Pz6vu6UM/S7NXArdMCOuIetFvPg3FhYAQEAIpEagibNNn3m92T9fhYATuFZ9H5v4+xYWAEBACOSOQgrQ9Hp37wH3idfG40CL0OqR0XQgIgVwQiHkrB72SEHhc8ByBiXXUuRAQAkIgNwTq/61ObppKHyEgBISAEJhB4P8DwaDEjf4bVvYAAAAASUVORK5CYII=;" parent="1" vertex="1">
                    <mxGeometry x="168" y="-40" width="139.02" height="172.26" as="geometry"/>
                </mxCell>
                <mxCell id="AhNlXJ4hRKMXUMh4VS_F-13" style="edgeStyle=none;curved=1;sketch=1;orthogonalLoop=1;jettySize=auto;html=1;fontFamily=Architects Daughter;fontSource=https%3A%2F%2Ffonts.googleapis.com%2Fcss%3Ffamily%3DArchitects%2BDaughter;fontSize=20;endArrow=open;startSize=14;endSize=14;sourcePerimeterSpacing=8;targetPerimeterSpacing=8;entryX=0;entryY=0.139;entryDx=0;entryDy=0;entryPerimeter=0;exitX=1.003;exitY=0.393;exitDx=0;exitDy=0;exitPerimeter=0;" parent="1" source="AhNlXJ4hRKMXUMh4VS_F-12" target="AhNlXJ4hRKMXUMh4VS_F-11" edge="1">
                    <mxGeometry relative="1" as="geometry">
                        <mxPoint x="-216" y="236" as="sourcePoint"/>
                        <mxPoint x="-52" y="190" as="targetPoint"/>
                        <Array as="points">
                            <mxPoint x="23" y="4"/>
                        </Array>
                    </mxGeometry>
                </mxCell>
                <mxCell id="AhNlXJ4hRKMXUMh4VS_F-12" value="2. Double click to add more shapes" style="text;html=1;align=center;verticalAlign=middle;resizable=0;points=[];autosize=1;strokeColor=none;sketch=1;hachureGap=4;pointerEvents=0;fontFamily=Architects Daughter;fontSource=https%3A%2F%2Ffonts.googleapis.com%2Fcss%3Ffamily%3DArchitects%2BDaughter;fontSize=20;" parent="1" vertex="1">
                    <mxGeometry x="-414" y="56" width="336" height="28" as="geometry"/>
                </mxCell>
                <mxCell id="AhNlXJ4hRKMXUMh4VS_F-16" style="edgeStyle=none;curved=1;sketch=1;orthogonalLoop=1;jettySize=auto;html=1;fontFamily=Architects Daughter;fontSource=https%3A%2F%2Ffonts.googleapis.com%2Fcss%3Ffamily%3DArchitects%2BDaughter;fontSize=20;endArrow=open;startSize=14;endSize=14;sourcePerimeterSpacing=8;targetPerimeterSpacing=8;" parent="1" edge="1">
                    <mxGeometry relative="1" as="geometry">
                        <mxPoint x="-569" y="423" as="targetPoint"/>
                        <Array as="points">
                            <mxPoint x="-485" y="529"/>
                            <mxPoint x="-477" y="423"/>
                        </Array>
                        <mxPoint x="-419" y="547" as="sourcePoint"/>
                    </mxGeometry>
                </mxCell>
                <mxCell id="AhNlXJ4hRKMXUMh4VS_F-14" value="7. Click to add different shapes or insert templates" style="text;html=1;align=center;verticalAlign=middle;resizable=0;points=[];autosize=1;strokeColor=none;sketch=1;hachureGap=4;pointerEvents=0;fontFamily=Architects Daughter;fontSource=https%3A%2F%2Ffonts.googleapis.com%2Fcss%3Ffamily%3DArchitects%2BDaughter;fontSize=20;" parent="1" vertex="1">
                    <mxGeometry x="-414" y="536" width="498" height="28" as="geometry"/>
                </mxCell>
                <mxCell id="AhNlXJ4hRKMXUMh4VS_F-19" style="edgeStyle=none;curved=1;sketch=1;orthogonalLoop=1;jettySize=auto;html=1;fontFamily=Architects Daughter;fontSource=https%3A%2F%2Ffonts.googleapis.com%2Fcss%3Ffamily%3DArchitects%2BDaughter;fontSize=20;endArrow=open;startSize=14;endSize=14;sourcePerimeterSpacing=8;targetPerimeterSpacing=8;exitX=1;exitY=0.357;exitDx=0;exitDy=0;exitPerimeter=0;entryX=0.905;entryY=0.242;entryDx=0;entryDy=0;entryPerimeter=0;" parent="1" source="AhNlXJ4hRKMXUMh4VS_F-17" target="AhNlXJ4hRKMXUMh4VS_F-34" edge="1">
                    <mxGeometry relative="1" as="geometry">
                        <mxPoint x="556.5" y="308" as="targetPoint"/>
                        <Array as="points">
                            <mxPoint x="595" y="392"/>
                        </Array>
                    </mxGeometry>
                </mxCell>
                <mxCell id="AhNlXJ4hRKMXUMh4VS_F-17" value="6. Drag or click this arrow to rotate" style="text;html=1;align=center;verticalAlign=middle;resizable=0;points=[];autosize=1;strokeColor=none;sketch=1;hachureGap=4;pointerEvents=0;fontFamily=Architects Daughter;fontSource=https%3A%2F%2Ffonts.googleapis.com%2Fcss%3Ffamily%3DArchitects%2BDaughter;fontSize=20;" parent="1" vertex="1">
                    <mxGeometry x="105" y="456" width="361" height="28" as="geometry"/>
                </mxCell>
                <mxCell id="AhNlXJ4hRKMXUMh4VS_F-22" style="edgeStyle=none;curved=1;sketch=1;orthogonalLoop=1;jettySize=auto;html=1;fontFamily=Architects Daughter;fontSource=https%3A%2F%2Ffonts.googleapis.com%2Fcss%3Ffamily%3DArchitects%2BDaughter;fontSize=20;endArrow=open;startSize=14;endSize=14;sourcePerimeterSpacing=8;targetPerimeterSpacing=8;exitX=1.008;exitY=0.464;exitDx=0;exitDy=0;exitPerimeter=0;entryX=0.118;entryY=0.248;entryDx=0;entryDy=0;entryPerimeter=0;" parent="1" source="AhNlXJ4hRKMXUMh4VS_F-20" target="AhNlXJ4hRKMXUMh4VS_F-34" edge="1">
                    <mxGeometry relative="1" as="geometry">
                        <mxPoint x="51" y="301" as="targetPoint"/>
                        <Array as="points">
                            <mxPoint x="25" y="383"/>
                        </Array>
                    </mxGeometry>
                </mxCell>
                <mxCell id="AhNlXJ4hRKMXUMh4VS_F-20" value="5. Drag blue dots to resize" style="text;html=1;align=center;verticalAlign=middle;resizable=0;points=[];autosize=1;strokeColor=none;sketch=1;hachureGap=4;pointerEvents=0;fontFamily=Architects Daughter;fontSource=https%3A%2F%2Ffonts.googleapis.com%2Fcss%3Ffamily%3DArchitects%2BDaughter;fontSize=20;" parent="1" vertex="1">
                    <mxGeometry x="-414" y="320" width="261" height="28" as="geometry"/>
                </mxCell>
                <mxCell id="AhNlXJ4hRKMXUMh4VS_F-34" value="" style="shape=image;verticalLabelPosition=bottom;labelBackgroundColor=#ffffff;verticalAlign=top;aspect=fixed;imageAspect=0;image=data:image/png,iVBORw0KGgoAAAANSUhEUgAAAk4AAAGQCAYAAABYhe83AAAAAXNSR0IArs4c6QAAAJBlWElmTU0AKgAAAAgABgEGAAMAAAABAAIAAAESAAMAAAABAAEAAAEaAAUAAAABAAAAVgEbAAUAAAABAAAAXgEoAAMAAAABAAIAAIdpAAQAAAABAAAAZgAAAAAAAACQAAAAAQAAAJAAAAABAAOgAQADAAAAAQABAACgAgAEAAAAAQAAAk6gAwAEAAAAAQAAAZAAAAAAGlAh6AAAAAlwSFlzAAAWJQAAFiUBSVIk8AAAAm9pVFh0WE1MOmNvbS5hZG9iZS54bXAAAAAAADx4OnhtcG1ldGEgeG1sbnM6eD0iYWRvYmU6bnM6bWV0YS8iIHg6eG1wdGs9IlhNUCBDb3JlIDYuMC4wIj4KICAgPHJkZjpSREYgeG1sbnM6cmRmPSJodHRwOi8vd3d3LnczLm9yZy8xOTk5LzAyLzIyLXJkZi1zeW50YXgtbnMjIj4KICAgICAgPHJkZjpEZXNjcmlwdGlvbiByZGY6YWJvdXQ9IiIKICAgICAgICAgICAgeG1sbnM6dGlmZj0iaHR0cDovL25zLmFkb2JlLmNvbS90aWZmLzEuMC8iPgogICAgICAgICA8dGlmZjpSZXNvbHV0aW9uVW5pdD4yPC90aWZmOlJlc29sdXRpb25Vbml0PgogICAgICAgICA8dGlmZjpYUmVzb2x1dGlvbj4xNDQ8L3RpZmY6WFJlc29sdXRpb24+CiAgICAgICAgIDx0aWZmOllSZXNvbHV0aW9uPjE0NDwvdGlmZjpZUmVzb2x1dGlvbj4KICAgICAgICAgPHRpZmY6T3JpZW50YXRpb24+MTwvdGlmZjpPcmllbnRhdGlvbj4KICAgICAgICAgPHRpZmY6Q29tcHJlc3Npb24+MTwvdGlmZjpDb21wcmVzc2lvbj4KICAgICAgICAgPHRpZmY6UGhvdG9tZXRyaWNJbnRlcnByZXRhdGlvbj4yPC90aWZmOlBob3RvbWV0cmljSW50ZXJwcmV0YXRpb24+CiAgICAgIDwvcmRmOkRlc2NyaXB0aW9uPgogICA8L3JkZjpSREY+CjwveDp4bXBtZXRhPgpgtfwkAAAyDElEQVR4Ae3dW6wcV7kg4Nq2Eww4vgQGonCxEZkkKAE7giPIIMY20pmTBxBBOho/zEN25g0BkskjIBmk84giPyDxMjrePIxQJARBIE3OSGD7EJIRHMYOSWZIlAhbIZGBYDtOmFx86anVe9d273Z37+6u26qqr6R236pWrfX9y93/XrW6KkksBAgQIECAAAECBAgQIECAAAECBAgQIECAAAECBAgQIECAAAECBAgQIECAAAECBAgQIECAAAECBAgQIECAAAECBAgQIECAAAECBAgQIECAAAECBAgQIECAAAECBAgQIECAAAECBAgQIECAAAECBAgQIECAAAECBAgQIECAAAECBAgQIECAAAECBAgQIECAAAECBAgQIECAAAECBAgQIECAAAECBAgQIECAAAECBAgQIECAAAECBAgQIECAAAECBAgQIECAAAECBAgQIECAAAECBAgQIECAAAECBAgQIECAAAECBAgQIECAAAECBAgQIECAAAECBAgQIECAAAECBAgQIECAAAEC5QgcO3ulV07JSiVAgEA+gQ35Nrc1AQIEihX49fnlpOlfJU/FwiqNAIFCBCROhTAqhACBogT+35XlksLd4ytJVFFlK4cAAQJ5BSROeQVtT4BAYQLDh+jeTLOn/33BYbvCgBVEgEBuAYlTbkIFECBQhMCvzo1OkC5cKqJ0ZRAgQKAYAYlTMY5KIUAgh8ATFy73Lk6YDj48EpVjVzYlQIBALgGJUy4+GxMgUITAuUsL6xZjsvi6RFYgQKACAYlTBch2QYDAeIHjU/56LkwWf2zM4bzxpXuHAAECxQpInIr1VBoBAjMIhF/NTThCd01Jb6Ur//aV0XOhrlnZCwQIEChBQOJUAqoiCRBYX+Dp1670wq/mZl1evZwkv0+3nXU76xMgQKAIAYlTEYrKIEBgZoG/vDXzJqsbnMmx7WohHhAgQGAOAYnTHGg2IUAgn8CjU85rmrSXaedGTSrDewQIEJhVQOI0q5j1CRDIJRDmKBVxaqZwrG7cuZ9yVdDGBAgQmCAgcZqA4y0CBIoXCHOUilrCuZ9MFi9KUzkECEwjIHGaRsk6BAgUIlDG4bWQiP0fk8ULiY9CCBBYX0DitL6RNQgQKEBg1lMPzLLLP5ssPguXdQkQyCEgccqBZ1MCBKYTePLV+U49MF3py2uVMZo1y/6tS4BANwQkTt2Is1YSqFXgrxfL373J4uUb2wMBAkkicdILCBAoVaDKa8yFyeL/5szipcZT4QS6LiBx6noP0H4CJQqEJGaOk4PnqtFr6WTxp0wWz2VoYwIExgtInMbbeIcAgZwCIYmpY3nZZPE62O2TQCcEJE6dCLNGEqhe4FgBZwfPU2uTxfPo2ZYAgXECEqdxMl4nQGBugRjO6G2y+NzhsyEBAhMEFia85y0CBAiULjDLyNS+Gzf4zCo9InZAgMAkASNOk3S8R4AAAQIECBAYEJA4DWB4SIAAAQIECBCYJCBxmqTjPQIECBAgQIDAgIDEaQDDQwIECBAgQIDAJAGJ0yQd7xEgQIAAAQIEBgQkTgMYHhIgQIAAgS4J/Jenw4WKLLMISJxm0bIuAQIECBBokcB//2N6ev9fvSl5miGmEqcZsKxKgAABAgRaJ/BamjdJnqYOq8RpaiorEiBAgACBNgqkiZPkaerASpymprIiAQIECBBoo8DKCfklT1MFV+I0FZOVCBAgQIBABwQkT+sGWeK0LpEVCBAgQIBAewSWXrrc+48n01/T/fyN0ZPCJU8Tgy1xmsjjTQIECBAg0A6BB09f6idLi09eTP71T+mv6bIzESyMuHa25Gls0CVOY2m8QYAAAQIE2iFw02/e6j3w+0tJkuZOy0uaLGUJUy97baitkqchkOWnEqeRLF4kQIAAAQItEUhPNXDm7JXlxiwMfe2PS5pa0vQymjEkWMYulEmAAAECBAjUIhDOzxRGjrJl9eHKg2zUKXt/8H5LOir16betOY734z9fXi1hcNUuPZY4dSna2kqAAAECnRHoTwAfTJqSkAMtjzx9aeem5MTdbxtvccO1SdORFy/3vnjiYvKPT2WTo8Zv3uZ3JE5tjq62ESBAgEAnBUKS058Avqb16WDRpoV+wvS92zct3LV1zHBTSJr+w9qRplDe/U9d7Jf2wxcvJ8fOXunsyNOmNaaeECBAgAABAo0XuP/5kOSE3CYdHwkDTb10pGlL+jg99HbXpNaNSJrC4bkw0rRaXjpqte//LidRk4pq63tGnNoaWe0iQIAAgU4KhNGh5PW06f0xofSf/gTwheTYR64b7ZFNEB+RNIUNvviejSH1Spd+BrZcbnoIsKvznSROy73BvwQIECBAoBUC//zn7Bd0aaKzcjTuH9+3Mdl344aVBGiomWGdMUlTtmaYE9VfwrobllOH/3m2m0frJE5Zr3BPgAABAgRaIPDLv6Ynt8xGka4sJ1E/vPO60UlTaO86SVNYJcyJCvf9ckPZ6e17f0rPC9XBReLUwaBrMgECBAi0U+DEhTSjSfOm5cNq4S7NdybMZr7xxjQNGJoIPlZm88A7odw3Bp536KHEqUPB1lQCBAgQaLfAK6tnBl85jJZ+y9+4dfxX/dm/u378SNQQ1TfftykJidbgrZ+oDa3X9qcT8tC2N137CBAgQIBASwXCiFBY0iN1B27YkHxv+Vmuf//plpXDdQOlTPyF3sB6bXoocWpTNLWFAAECBAgEgTAPqT+RO0keenVlsnhOmW8+d6n3386tLet/3HZdMvZ8UDn3F+vmEqdYI6NeBAgQIEBgRoFtq4NCV0eczl5Ym+zMWOTq6v/0UjoZPJzmYGDpWtIUmj7+wOcAjIcECBAgQIBA/AL9RGZjqOfKHKcw8lTUj98Gk6ZQ7tqTi8ePU1ANJU4FQSqGAAECBAjEIPCZd6WZUzbHaeWcS3mvL/el36/MOg/lrty+dFM/Q4uhyZXWQeJUKbedESBAgACBcgX+63tWvtrDqFC4pUve68t97/TKsFUob+XcUP/pxql/kFdugysuXeJUMbjdESBAgACBMgXuf196iZRwGK2f12QjRL25ry+39tIqK+VuWRi4FEuZrYmvbIlTfDFRIwIECBAgkEvgyL8Pv/0KmdPKqFMvfZxeXy75+Ru9ac+9FNYLSdO9/25DcuTO7Dp3YQRrwnXvctW6GRtLnJoRJ7UkQIAAAQJTC4RRp8+8Z3gOUpo8pdf/vevxN5Mvp3OWJiVQ//mpi72w3hdPXEyWXrqSLN58NXmaeN27qWvY3BVDOmohQIAAAQIE2ijwqzd7/ZGm1batjEJlz9+eJN+8eVMSTm4ZztO05pQD/cGl5RGmMOIUkqeH/3Kls4foMjKJUybhngABAgQItFFgMHkKv4jrTxi/mkCFS6iES6/c+Ju3emfPZud8yt7P7pP+4br+/Kk2Gs3QJofqZsCyKgECBAgQaJzAp9+20L+Yb6h4L02MslMVTGpIyJf66y0nUuGwn6RpGUziNKnjeI8AAQIECLRAIIwoPXh7OmE8nFm8P+IUDsGF24glvJ/dtmxIjv3d9ckv77oupFKWVMAlV3QDAgQIECDQAYEHdi5fj+XIi5d7//znK8kvz14efVbxzRuScHLLcJ6mL75n48K+DthoIgECBAgQIEBgKoHs13XZ/VQbWYkAAQIECBAgQIAAAQIECBAgQIAAAQIECBAgQIAAAQLVCpglX633VHv73YXLvXOXFpIdm3rJx7am1xyyEOiQgP7foWBr6jUC+v81JNG94Es5kpAcPn2pdzA9rX1yITv52EDFtm5IDqdnbD248ouIgXc8JNAKAf2/FWHUiDkF9P854WraTOJUE3y22/5/mOfTn4ReHHM+jWzFcJ+eRmMpPQ/H4s1GoQZZPG6ugP7f3NipeX4B/T+/YR0lSJzqUF/Z54GnL/Ye+mOaNM24HHj/xuShO5yMbEY2q0cmoP9HFhDVqVRA/6+Uu9CdSZwK5Zy+sHn/02R7kDxlEu6bKKD/NzFq6lyUgP5flGQ95bjkSg3uYXh2npGmwaqG7ZdeujzF8b3BrTwmUL+A/l9/DNSgPgH9vz77ovZsxKkoyVnK+cWbvanmNK1XZjha99m3ieF6Tt6PS0D/jysealOtgP5frXcJe3OtuhJQJxXZnwz4+0uTVpn+vXRCeb88v7ZbY3bixIneK6+8suY1T6YT2LZtW3LXXXeVlozr/9PFoUlrHTt2LJqR77QupdOdOnUqCbdZlrRe/f9T+v8savGuW9oHZLxNrrlmj7/VG3nKgXmrlZ6qILn7+lxxnPTBN+2HxLTrDTbz/PnzycmTJwdf8riFAvfee2/y8MMPL/fREvt/up9eup8WCmpSkwWq6v9NNmpa3Y04VR2xUedpylOHgfJCAnT48OEkJCTDy6S/xPbt2ze8uucEChPYs2dPSJyWyxvor4XsYKC8NfsppHCFdE1g586dya5duwpt9he+8IVK+n+hlVbYRAGJ00SeYt88fvZKb+9v3iq20LS0cKbZcIbxkBytfkEVvpe1Be7evTvZvn372hfHPAvrhS+1vIsEL69gPdvv37+/P9pUdv/fu3dvcujQoXoaGelei/q/V1fzQhJTdCJTZVvCiHp26Lvs/l9lu7q+L4lTC3pAuDxLWD75yU8m4csjLPfcc0/ygQ98INmyZUv/+eA/Yf7PBz/4wcGX1jzesWPHmufZk3e+853JLbfckj295v6JJ5645rXshQ9/+MMj6xLeP3PmTPKnP/0pW3XN/Xvf+97kpptuWvNa9uS1115Lnn/++ezpNfchuRu3PPfcc8nf/va3kW9P2uekuvKZHMuR2AW8mPX/kKClX1Rr5ttMiqX+kySx+4TPquxzpez/X5cuXUpCn+j1rnahhYWF/nSC4VH8MDXh1VdfTT7/+c+v9uA33ngjCbdsOXjwYP/h0tJSb3FxcflDOnuzwPus/xdYpKLWEZA4rQPUhLe3p9e0C8vb3/72JP3y6D/+yEc+MnZEKHwIHD9+vL9e9s/gX6bDHxLZOufOnUtefPHF7OlM97/97W9nWj9bOdTlmWeeyZ6u3och9VDncXVdXXHMg/ABOW4CeZggPW4JH4zj9jn4gTtq+3HbhXXDh/a4ZdI+J9U1lDlpn+P2F14vw2fS/vK8l/X/UMZwe5vko/8k/cRjOIZZ3xj+/BmefjBpRPqrX/1qEpKdsAxvlyY1SbhlS0iWsuVnP/tZ8p3vfCd7uub+tttuS0K56y3Zftdbb973B/v/vGXYbjaBqz1ktu2sPa/Av7xx9c+ZecsY3u4fNvfj+K1vfauX3vrvhhGncSM1Yfh43KTscEht3GG1MNryyCOPDO999fngh8/qiysPwnZh+1HLpH1OqmtoX2jnuCX9S2/cW/3t5vX51Kc+NdI2fOCPcw0VmfTBHrYb94URDlXcfvvtY/c5brvNmzeP3CZDmfSBHmzC9tmyXlnZeqPu03Zf/Zwpsf+HfadfiiP/f42auxIS0nF9MpQV3MctYbvB0YXB9UJCH26jlhCrUfEKr41L5EeVU8RrYZ+hD4yqTyh/vZiHBGRcHwr/p0cZhH2F7cb9P5n0WVDH58+zzz6bPPbYY6vcIRHPPh9vuOGG5OMf//hYp6z/ZIeq+4WU3P9XK+pBqQJXP9BK3Y3CVwX8qmiVwoNuCFT1qyK/qutGf5rUymyqwvA6IYnLEp7h90KCkyU5g++tSXgG38jzuMTP/zzVsu1sAhKn2bxyr13oeTzS2hxOL/p7MNLzOB09enTkX/+5EecsYNKozpxFTrVZHfsNf9lnc0OmqmT5K/U/a0ru/1H1t/JJq9vDuIRkvRpMGmUd3HZc8jK4Tkh+sonWg6836XHJ/b9JFI2uq8SpjvA5c2wd6vYZi0BJ/T+2RL1O7lJGS+psUJv2XVL/bxNR7G2RONUQoSMvXu7d/9TF3Hs+cud1yf3v2yiGuSUVUKWA/l+ltn3FJqD/xxaR2evjIr+zm+XeIiQ7B96/MVc5YXtJUy5CG9ckoP/XBG+3UQjo/1GEIVcljFbk4su38YGnL/Ye+uPlmQsJSdNDd4Qr/FoINFdA/29u7NQ8v4D+n9+wrhJ8+dYlv7Lf/rDtM+k5fNIL9q67pLnSkds2GWlaF8oKTRHQ/5sSKfUsQ0D/L0O1/DIlTuUbT7WHB09f6j3w0pVk5AWA0wv5PnjzhuSBSH89N1UDrURggoD+PwHHW60X0P+bFWKJU4TxeiK99lw4jf6O9Izgu9Nr0EVYRVUiUJqA/l8arYIbIKD/NyBIqtgcgUcffXSK43nNaY+aEiBAgAABAgQKFwhnRE4L7X3hC1+QOBWuq0ACBAjEIRDORRYunfWjH/2oN+7yQXHUtNu1cJHfSOMf/gNlF5vMzr4bLhnwk5/8JNIaqxYBAgQI5BEI1/H79re/3S9i3rO159m/bacTkDhN51TLWuMuhFlLZeyUAAECBAgQSCROEXeCgwcPRlw7VSNAgAABAt0TcObwBsV81BW8G1R9VSVAgACBKQVOnz495ZpWq1pA4lS1eI79SZxy4NmUAAECDRI4depUg2rbrapKnLoVb60lQIAAgUgFwuRwS/wCEqf4Y6SGBAgQINAhgdtuuy1ZXFzsUIub1VSJU4PitX//fmcRb1C8VJUAAQLzCNx66639xMm5nObRK38biVP5xvZAgAABAgQItERA4hRxIMPxbse8Iw6QqhEgQIBA5wQkTp0LuQYTIECAAAEC8wpInOaVq3i7nTt3VrxHuyNAgAABAgSGBSROwyKRPncOp0gDo1oECBAg0CkBiVOnwq2xBAgQIBC7wMsvv5yEa5X2er3Yq9rJ+kmcOhl2jSZAgACBWAUef/zxxLVKY41Okkic4o2NmhEgQIAAAQKRCWyKrD6qMyAw+BfH9u3bB97xkAABAgTaLuB6dXFG2IhTnHHp1yoc4w63sOzZs6d/7x8CBAgQ6IaAxCnOOEuc4oyLWhEgQIAAAQIRCkicIgyKKhEgQIAAAQJxCkic4oyLWhEgQIAAAQIRCkicIgyKKhEgQIBAdwU+//nP969Tun///u4iRNxyiVPEwRms2r59+wafekyAAAECBAjUICBxqgF92l0uLi4m4WYhQIAAAQIE4hCQOMURh2tqsXnz5n7SJHG6hsYLBAgQIECgNgGJU230k3d89913L0xew7sECBAgQIBA1QISp6rF7Y8AAQIECBBorIDEqSGhS39dYQSqIbFSTQIECBBor4Br1bU3tlpGgAABAg0UeOyxx5IXXngh2b17dwNr3/4qS5zaH2MtJECAAIEGCfz1r39Nwm3btm0NqnV3qipxijjWS0tLEddO1QgQIECAAAECcQn00upkt7hqpjYECBAgUKjA3r17s8/7/v327dvDvSUyAZPDIwvIqOoYrh2l4jUCBAi0W+D8+fPtbmBDWydxakDg9uzZ04BaqiIBAgQIEGi/gMSp/THWQgIECBAgQKAgAZPDC4JUDAECBAgQKELgtttuS9KrR/SL8iOhIkSLLcOIU7GeSiNAgAABArkEbr31VtcqzSVY7sZGnMr1zVW6uU25+GxMgAABAgQKF5A4FU5aTIFHjx7tLSwsX2Xl0KFDxRSqFAIECBAgQCCXgEN1ufhsTIAAAQIECHRJQOLUpWhrKwECBAg0SuDEiRNOghlZxCROkQVkVHV27do16mWvESBAgEDLBZwEM74AS5zii8k1NZI4XUPiBQIECLROIPusf/bZZ5NwGgKnIogzxCaHxxkXtSJAgACBjglkidMzzzyThFtY7rvvvo4pxN9cI07xx0gNCRAgQIAAgUgEJE6RBGJUNfbt25eEm4UAAQIEuiPgwu5xx1riFHd81I4AAQIEOibg5MdxB1ziFHd81I4AAQIECBCISEDiFFEwVIUAAQIECBCIW8Cv6uKOj9oRIECAQMcEbrjhhsThuniDbsQp3tis1swE8VUKDwgQINB6gQ9+8IPJ4cOH+zcnwIwv3BKn+GKiRgQIECDQYYEXXnhhtfUnT55cfexBHAIO1cURh5G1CH9xWAgQIECAAIF4BCRO8cTimppkx7h7Pdd4vAbHCwQIECBAoAYBh+pqQLdLAgQIECBAoJkCEqdmxk2tCRAgQIAAgRoEJE41oNslAQIECBAYFsimZwy/7nlcAhKnuOKhNgQIECDQUYHt27f3W/7Tn/60f51Sp6KJsyNInOKMi1oRIECAQIcFXOg33uBLnOKNTbK0tNS/RVxFVSNAgACBEgQctisBtaAinY6gIMgyigmJU1juu+++/r1/CBAgQKAbAk58GW+cjTjFGxs1I0CAAIGOCrzyyisdbXn8zZY4xR8jNSRAgAABAgQiEZA4RRII1SBAgAABAgTiFzDHKf4YqSEBAgQIdEjg7rvvTg4cONBv8blz5zrU8mY01YhTM+KklgQIECDQEYF3v/vdSfhVXbgdO3as8a1+6rUrrbrgamNHnEIgXn4rSfbduGGh8b1qTAMWFxfHvONlAgQIEGibwP79+8P3WauSjBCjy1cWkmNnr/TefX2S3Lml+d/ZjUyc/tf55aSpbf9phtuTJU69Xuv+Hw031XMCBAgQaLlAGOz41bkrvU/vaHby1LhDdSFrfeNKy3uX5hEgQIAAgRYKXEzHAcL3eJMP3zVmxCk7NNfCfjSySStDtv33nnzySUNOI5W8SIAAgXYJHDp0KPnMZz4TrlXXn4by9a9/vXf8+PF2NTJtTZNHnxoxPygcmhs3ytTmOU6t+5+iQQQIECDQOYEnLvR65y6N//u/aXOfoh9x6uKhud9duJx2soVkx6Ze8rGtGxuR3Hbuk0CDCRAgUIJAFz//mzb6FO2X8rSH5toy4nT49KXewZfSyVsXRkzg2rohOXzzhuTgzk3RxquEzw9FEiBAoBMCbf/8X2/EaTDITRh9ivKLOMy6DxPIplmanjj1/8M8fzlJpmnwdQvJ0u2bksWbjUJN0zesQ4AAgZgFuvL5P0viFOK1Of3Z2qe2x/vLu+gSp3BobpaO3uTE6cDTF3sP/TFNmmZcDrx/Y/LQHWkWZSFAgACBRgp06fN/1sQpC2is3+/RnI4gwM6aNGW4Tbyf9z9NaGtItsL2TWy3OhMgQKDrAj7/p+sBIScIPw6bbu3q1opi1GKWQ3PV0cy2p1ky4/7w7O8vzbaDEWsvffQ6h+1GuHiJAAECsQrU9fnf9IGJWb5jy4597YlT04OZBWimoP7izd5Uc5qywsfdh6N1n31b7TEcVz2vEyBAgMCQQE2f/234ro1l7lNth+q6dmgu+68T/tooJGkKBaZH6/rlZYW7J0CAAIFoBXz+5wtNOJ9jDAlgLaMVbTg0Nxz+qUecHn+rN/KUA8MFTvs8PVVBcvf1tcRx2ipajwABAgRSgRo//2NIOIrsA3WOPlU+4hSC1+lpzaPO05SnNxVdXp662JYAAQIExgsU/XlddHnjax7dO3WOPlWWOP3bK1c69au5Ub3s+IynWhhVxqjXwplmR73uNQIECBCIQ8DnfzlxCIMxVf/yrrLE6c0RJ8Quh7F7pYbLs1gIECBAoHsCPv+TpOqhg8oSp0/v2LCwZWP3OnUVLd6eXtPOQoAAAQLdE+j653/IK0J+UWXkK0ucQqM+sW3DQrgOTVeXvTeWE9zdLgTc1S6l3QQINETA53/xgQo/ygp5RfElTy6x0sQpVOXOLRsWpv4F2uS6N/Pd8Cu4IpeiyyuybsoiQIAAgasCRX9eF13e1ZpG/SicwrDOPKLgb/Hprets9PS1LH7NwzcXS150ecW3WIkECBAgEASK/rwuurwmRKmOQ3PDLpUPcQ1XoC3ndJopEazpzLHD9p4TIECAQMUCNX3+t+E8TmGqTzhqVXHErtld7RUINQqnKnjt8jV1m+qFmRKWqUosf6UjL17u3f/Uxdw7OnLndcn979sYRQxzN0YBBAgQ6IBAFz//w5VCzqUXzcizxPRdX+xxozlVujZpPCQ7B96f7yeGYXtJ05wdzmYECBCoScDn/2zw4QzhMSVNofZRJE6hIl2bNP7QHdfNnTyFpClsH9wsBAgQINAsAZ//08UrHJr71Pb6D80N1zaaxCmrWGyZZVavMu7Df55wuC2ZNgdK1wvrS5rKiIYyCRAgUJ2Az//J1iEXiGE+06haRjtqMe2k8bYkWg+evtR74KX09Oqjrj2U/uT0wfTXeA/s3BRtvEZ1Lq8RIECAwPoCbf/8n2WOU50X710/UstrRP1FPM2k8bYkToMBeyK99lw4jf6O9IzgTm45KOMxAQIE2i3Qxs//aROnWH41t14PizpxCpV/6rUrvZffGt+MNiZO41vrHQIECBAg0CyBaRKnJn2XRzfHabg7dG3SeNb+p59+uvfwww/3b08++WS+33FmhbonQIAAgegFfv7zn69+5n/jG99YfRx9xeeoYN1nAZ+jyvH8qm69yjcpG12vLdO8/+tf/zrZvn17//byyy9Ps4l1CBAgQKAFAocPH06OHTvWC7dHH320BS0a3YQd6bTdqi/QO7oms70a/YjTYHNC8jTtD9AGt2vi4zNnzjSx2upMgAABAgTWFQjf57u3LkQ/XWhUQxqVOIUGhOw0XKum7csbb7zR9iZqHwECBAh0TKCJh+aGQ9S4xCk0IJxpPAzxWQgQIECAQNsEbr311rY1qd+eph6aGw7GpuEXmvK8qUN8TfFVTwIECBCoR+CZZ55J0gni/Z1v27atnkoUvNc2zVNu5IhTwfFUHAECBAgQiEbg1VdfTU6ePNm/RVOpHBVp20BHY0eccsSwEZueOnUqWVpa6tf1vvvua0SdVZIAAQIECLRdQOIUaYRD4nT8+PF+7Xbv3h1pLVWLAAECBAh0S8ChugbE+/z58w2opSoSIECAQBECe/bsKaIYZZQkIHEqCVaxBAgQIEBgHoFw8mNLvAISp3hjo2YECBAgQIBAZALmOEUWENUhQIAAgW4LbN26NVlcXOwj/OEPf+g2RoStN+IUYVBUiQABAgS6K7Bly5Z+4pQlT92ViLPlRpzijEv/4r4mCEYaHNUiQIBAiQIf+MAHSixd0XkFJE55BUvaPiRNX/va1/qlHz16tKS9KJYAAQIEYhN4xzveEVuV1GdAwKG6AQwPCRAgQIBA3QK9Xq/uKtj/BAGJ0wScWN46duxYLFVRDwIECBAg0GkBiVOnw6/xBAgQIECAwCwC5jjNolXhuqdPn65wb3ZFgAABArEI7N+/fyH9RZ3jdbEEZKgeEqchEE8JECBAgEDdAtlF3vfu3Vt3Vex/SMChuiEQTwkQIECAAAECBJonEIZp+7f0Lw5Dts2LnxoTIEAgj4DP/zx6JW5rxKlEXEUTIECAAAEC7RKQODUgnk888UQDaqmKBAgQIFCUgLlNRUkWX47EqXjTwks8f/584WUqkAABAgQIEJhdwK/qZjezBQECBAgQKFVg165dySuvvFLqPhROoG0Cq5PD04aZHN626GoPAQIEJgikV4zohZsfB01Aqukth+pqgrdbAgQIECBAoHkCDtVFGrN77rknCbewHDx4MNJaqhYBAgQIEOiWgBGnCON94sSJ3k033ZTs2bOnf4uwiqpEgAABAhUI+FV1Bcgz7kLiNCNYFauP+hXd0aNHzXOqAt8+CBAgEJHAqO+DiKrXyapInDoZdo0mQIAAAQIE5hGQOM2jZhsCBAgQIECgkwImh3cy7BpNgAABAjELHDp0KDl+/HjMVexs3Yw4dTb0Gk6AAAECTRAwxzWuKBlxiiseq7U5efJksrS0tPrcAwIECBAgQKB+AYlT/TEYWYOQOIVbtqRnkM0euidAgACBlgs4DUG8AXaoLt7YqBkBAgQIdFTAaQjiDbzEKd7YqBkBAgQIEFhz9AFH/QISp/pjMLEG27Ztm/i+NwkQIECg3QJGn+KKr8Qprnj0azM4tylcdsVCgAABAt0SOHz4cBJulvgETA6PLybJqL8uRr0WYdVViQABAgQKEPBHcwGIJRUhcSoJNm+x2QV+d+3a1T8J2uAoVN6ybU+AAAECzRHwh3NcsZI4xRWP1dqExGlxcXH1uQcECBAg0E0BfzjHFXdznOKKh9oQIECAAAECEQtInCIOjqoRIECAAAECcQlInOKKh9oQIECAAAECEQuY4xRxcAar5vT7gxoeEyBAoN0Cg9cq9fkfV6wlTnHFY2xt/KpiLI03CBAg0DqBwcTJ539c4ZU4xRWP1dqcOXMmOXXqVOLM4askHhAgQIAAgdoFJE61h+DaCoS/Lh555JHk9ddfd0qCa3m8QoAAAQIEahMwObw2+vE7HjxnRzgBpoUAAQIECBCIQ0DiFEccpqrFiRMnelOtaCUCBAgQaJXA0aNHff5HElGJUySBmKYaJghOo2QdAgQINFtAkhR3/CROccdH7QgQIECggwLhklsuuxVn4CVOccalX6vt27cn4WYhQIAAgW4JDCdOjjjEE3+JUzyxuKYm4UK/4WYhQIAAgW4LDP5oqNsS9bde4lR/DEbWIPy1sX///uT48eOr74fzOlkIECBAgACB+gQkTvXZz7xnidPMZDYgQIAAAQKFCkicCuUsprDBUaZiSlQKAQIECDRZwByneKIncYonFmNr4rIrY2m8QYAAgU4ImOMUT5glTvHEYmxNTBAfS+MNAgQItFIgJErh5g/n+MLrWnXxxWRsjfzFMZbGGwQIEGiVwMGDB/vtue+++5Lvf//7rWpb0xtjxKlBEXSMu0HBUlUCBAgUIOB6pQUgFlyExKlg0KKKe+SRR5Jer5fs27dvoagylUOAAAECzRTwo6F44iZxiicWa2py5syZ1efmOK1SeECAAAECBGoVkDjVyj/dzl12ZTonaxEgQKANAoPTMnz+xxdRiVN8MRlbI0O1Y2m8QYAAgdYIDP4QyBGH+MIqcYosJkePHu1FViXVIUCAAIEIBE6cOOH7IYI4qEKEAocOHeodOXJk9T/ID37wg/A4u0VYY1UiQIAAgTIEnnzyyeyzv+cP6zKEldlqgR//+MeryVSrG6pxBAgQILBGIHz+P/74474D1qjU88RP3etxn7jX31243Dt3aSHZsamXfGzrRjGaqOXNtgno/22LqPbMIqD/z6JVz7q+lOtxv2avh09f6h186UqSXEhvw8vWDcnhmzckB3duEq9hG89bIaD/tyKMGjGngP4/J1xNm/kirgk+223/P8zzl5Pk4hQjsNctJEu3b0oWbzYKlfm5b7aA/t/s+Kl9PgH9P59fXVtLnOqST/d74OmLvYf+mCZNMy4H3r8xeeiONIuyEGiwgP7f4OCpem4B/T83YW0F+PKtiX7e/zRZdSVPmYT7Jgro/02MmjoXJaD/FyVZTznO41SDexienWekabCqYfully5PcXxvcCuPCdQvoP/XHwM1qE9A/6/Pvqg9G3EqSnKWcn7xZm+qOU3rlRmO1n32bWK4npP34xLQ/+OKh9pUK6D/V+tdwt42lVCmIicI9CcD/v7ShDVmeCudUN4vz6/tZkCzap0C+n89+seOHat0dDpca23wsiH1tLqcvYZrx816GZR9+/b1/8DV/8uJSdWlGq2oWvzxt3ojTzkwbz3SUxUkd18vjvP62a5agRL7/1NPPdV7+eWX52pPmljMtd3gRqdOnUrCLe8SEo7Bi7zmLc/29Qrce++9ycMPP7z8GV1i/6+3ld3auxGnquM96jxNeepQdHl56mLbpOq/7Mv+ki0iGVhcXEzS2/IXR9H9daC8H/7wh8m3vvUtvZBAVAJhdCpNnJbrNNBfC6lk0eUVUqn2FyJxqjDGx89e6e39zVuF7zGcaTacYXxpaamX3govP8YCi/hCL6Nd6ZB8GcU2uszMpOz+32ikHJUPX8zh8NG0y6yH0Xbt2pWEWyxLrP/31/PR/9cTas77EqfmxGpsTcPlWbJl+JDDPffck4TbqOW5555Lvvvd7456q//a4cOHx74Xtgvbj1om7fORRx5Jwm3UcssttyRf+cpXRr3Vf+3gwYNj3wvbhe1HLZP2OamufJJ+38nbf/7+7/++1JGgrP9/9KMfTSb1Wf1nvv9fIVH53Oc+5//XnJ8/d9xxx6iPpcJey/p/YQUqaF0BidO6RPGvsD29pl1Ywgfc8HLTTTfNPJExK2PSBMgtW7Zkq11zP2mfkyaMhjIn7fOaHQ28EJKmcdtO2uekug4UP/LhuP2Flfkkq/FIvziuZvYjJfO9mPX/v/zlL6v7nLXEGPvP7t27R44kffKTnxzbznPnziWvv/76yOaHUaNJfXbv3r0jtwsvfuITnxg76jRpn5PqunPnzuRd73rX2H1OquuXv/zlsfPAQjs/9KEPjSx327ZtSajTqGW9Sd9Hjx4dtdnqawsLo7t5NjF8dcWCH2T9v+BiFTdBYHSkJ2zgrZwC//JG8b9u+YfN/Tim8zt6w3M8wofPuA+gM2fOjB39Ca0Mc1PGLWEUJ2w/apm0z5DEjEtkQhIzbnQj7GfSYciwXdh+1DJpn5PqOsknfOhP8gn7HDfBN3ywh9uoZdxhiFDP0L5xbQxljUqcs32E7TZv3pw9XXMf6jmuruHLZPAw0Lh6rylw6Mn+/fuvfs6U2P+HduspgfgE9P/4YjJHja5+oM2xsU3mECjxVxXprzd6q5MQ06qFL/d5vuhGtSp8cQ9+gY5aZ5bXQr2Kqtvwftd8UQ+/6Xm9AiX2/3obZu8EphDQ/6dAin8ViVPFMSr0PB5p3Q+nF/096DxOFUfR7uYV0P/nlbNdGwT0/zZEMUkkTnXE0Zlj61C3z1gE9P9YIqEedQjo/3WoF7pP16orlHO6wo7cVsyc/KLKma7W1iJQjEBR/baocopplVIITCdQVL8tqpzpam2tQQGJ06BGRY/vf9/GhQPv35hrb2H7UE6uQmxMoAYB/b8GdLuMRkD/jyYUc1fEF+/cdPk3PPD0xd5Df7w8c0EhaXrojnCFXwuB5gro/82NnZrnF9D/8xvWVYIv37rkV/Z75MXLvfufSS/6m16wd90lzZXC8KyRpnWlrNAQAf2/IYFSzVIE9P9SWEsvVOJUOvF0O3jw9KXeAy9dSUZeADi9kO+DN29IHvDruekwrdU4Af2/cSFT4QIF9P8CMSsoSuJUAfKsu3givfZcOI3+jvSM4LvTa9DNur31CTRZQP9vcvTUPa+A/p9X0PYECBAgQIAAAQIECBAgQIAAAQIECBAgQIAAAQIECBAgQIAAAQIECBAgQIAAAQIECBAgQIAAAQIECBAgQIAAAQIECBAgQIAAAQIECBAgQIAAAQIECBAgQIAAAQIEGi7grNQND6DqE2i6wLGzV6a4UONyK/fduMFnVtMDrv4EGi6woeH1V30CBAgQIECAQGUCEqfKqO2IAAECBAgQaLqAxKnpEVR/AgQIECBAoDIBiVNl1HZEgAABAgQINF1A4tT0CKo/AQIECBAgUJmAxKkyajsiQIAAAQIEmi4gcWp6BNWfAAECBAgQqExA4lQZtR0RIECAAAECTReQODU9gupPgAABAgQIVCYgcaqM2o4IECBAgACBpgtInJoeQfUnQIAAAQIEKhOQOFVGbUcECBAgQIBA0wUkTk2PoPoTIECAAAEClQlInCqjtiMCBAgQIECg6QISp6ZHUP0JECBAgACBygQkTpVR2xEBAgQIECDQdAGJU9MjqP4ECBAgQIBAZQISp8qo7YgAAQIECBBouoDEqekRVH8CBAgQIECgMgGJU2XUdkSAAAECBAg0XUDi1PQIqj8BAgQIECBQmYDEqTJqOyJAgAABAgSaLiBxanoE1Z8AAQIECBCoTEDiVBm1HREgQIAAAQJNF5A4NT2C6k+AAAECBAhUJiBxqozajggQIECAAIGmC0icmh5B9SdAgAABAgQqE5A4VUZtRwQIECBAgEDTBSROTY+g+hMgQIAAAQKVCUicKqO2IwIEhgWeuNDrDb826fms608qy3sECBCYR2Bhno1sQ4AAgUkCIcE5d2mmnGhScXO/tzn90/BT2zf4nJtb0IYECAwLGHEaFvGcAIHcAru3LixcF0G6ImnKHUoFECAwJCBxGgLxlACBYgQ+vaPekZ59N9a7/2IUlUKAQGwCEqfYIqI+BFoksGNTPcNO776+RYiaQoBAVAISp6jCoTIE2iVQxyG7MK/pzi1Gm9rVk7SGQDwCEqd4YqEmBFopUPUhO/OaWtmNNIpANAISp2hCoSIE2itQ1SE785ra24e0jEAsAhKnWCKhHgRaLFDFITtJU4s7kKYRiEhA4hRRMFSFQJsFyjxkt2Vjm+W0jQCBmAQkTjFFQ10ItFygjEN24XxRn9hmMnjLu47mEYhGQOIUTShUhED7Bco4ZFfmSFb7I6KFBAjMKiBxmlXM+gQI5BIoMtExrylXKGxMgMAcAhKnOdBsQoBAPoEiDtmZ15QvBrYmQGA+AYnTfG62IkAgh0DeQ3bmNeXAtykBArkEJE65+GxMgMC8AnkO2eXZdt762o4AAQJBQOKkHxAgUJvAPIfszGuqLVx2TIBAKiBx0g0IEKhNYNZDduY11RYqOyZAYEVA4qQrECBQq8C0h93Ma6o1THZOgMCKgMRJVyBAoHaBaQ7ZTZtg1d4YFSBAoNUCEqdWh1fjCDRDYL1DduY1NSOOakmgCwISpy5EWRsJNEBg3IiSeU0NCJ4qEuiQgMSpQ8HWVAKxCwwfsjOvKfaIqR+B7glInLoXcy0mEK3A8CG7caNQ0TZAxQgQIECAAAECVQscO3ulV/U+7Y8AAQIECBAgQIAAAQIECBAgQIAAAQIECBAgQIAAAQIECBAgQIAAAQIECBAgQIAAAQIECBAgQIAAAQIECBAgQIAAAQIECBAgQIAAAQIECBAgQIAAAQIECBAgQIAAAQIECBAgQIAAAQIECBAgQIAAAQIECBAgQIAAAQIECBAgQIAAAQIECBAgQIAAAQIECBAgQIAAAQIECBAgQIAAAQIECBAgQIAAAQIECBAgQIAAAQIECBAgQIAAAQIECBAgQIAAAQIECBAgQIAAAQIECBAgQIAAAQIECBAgQIAAAQIECBAgQIAAAQIECBAgQIAAAQIECBAgQIAAAQIECBAgQIAAAQIECBAgQIAAAQIECBAgQIAAAQIECBAgQIAAAQIECBAgQIAAAQIECBAgQIAAAQIECBAgQIAAAQIECDRL4P8DEZp+x/J8LU0AAAAASUVORK5CYII=;" parent="1" vertex="1">
                    <mxGeometry x="271" y="289" width="237.48" height="161" as="geometry"/>
                </mxCell>
                <mxCell id="AhNlXJ4hRKMXUMh4VS_F-39" value="" style="edgeStyle=none;curved=1;rounded=0;sketch=1;orthogonalLoop=1;jettySize=auto;html=1;endArrow=open;sourcePerimeterSpacing=8;targetPerimeterSpacing=8;fontSize=16;fontFamily=Architects Daughter;fontSource=https%3A%2F%2Ffonts.googleapis.com%2Fcss%3Ffamily%3DArchitects%2BDaughter;startSize=14;endSize=14;exitX=0.5;exitY=0;exitDx=0;exitDy=0;" parent="1" source="729UBDh0aR7hyHmuS7Is-2" edge="1">
                    <mxGeometry width="120" relative="1" as="geometry">
                        <mxPoint x="543.2829999999999" y="-101" as="sourcePoint"/>
                        <mxPoint x="906" y="-153" as="targetPoint"/>
                        <Array as="points">
                            <mxPoint x="767" y="-153"/>
                        </Array>
                    </mxGeometry>
                </mxCell>
                <mxCell id="AhNlXJ4hRKMXUMh4VS_F-40" value="8. Hover to see tips" style="text;html=1;align=center;verticalAlign=middle;resizable=0;points=[];autosize=1;strokeColor=none;sketch=1;hachureGap=4;pointerEvents=0;fontFamily=Architects Daughter;fontSource=https%3A%2F%2Ffonts.googleapis.com%2Fcss%3Ffamily%3DArchitects%2BDaughter;fontSize=20;" parent="1" vertex="1">
                    <mxGeometry x="-416" y="604" width="197" height="28" as="geometry"/>
                </mxCell>
                <mxCell id="AhNlXJ4hRKMXUMh4VS_F-41" value="" style="edgeStyle=none;curved=1;rounded=0;sketch=1;orthogonalLoop=1;jettySize=auto;html=1;endArrow=open;sourcePerimeterSpacing=8;targetPerimeterSpacing=8;fontSize=16;fontFamily=Architects Daughter;fontSource=https%3A%2F%2Ffonts.googleapis.com%2Fcss%3Ffamily%3DArchitects%2BDaughter;startSize=14;endSize=14;exitX=-0.023;exitY=0.464;exitDx=0;exitDy=0;exitPerimeter=0;" parent="1" source="AhNlXJ4hRKMXUMh4VS_F-40" edge="1">
                    <mxGeometry width="120" relative="1" as="geometry">
                        <mxPoint x="-623" y="693" as="sourcePoint"/>
                        <mxPoint x="-628" y="495" as="targetPoint"/>
                        <Array as="points">
                            <mxPoint x="-579" y="623"/>
                            <mxPoint x="-644" y="587"/>
                        </Array>
                    </mxGeometry>
                </mxCell>
                <mxCell id="-lLK8x3hQrBcMN-jiT6f-1" value="diagrams.net in Teams - tutorial" style="text;html=1;align=center;verticalAlign=middle;resizable=0;points=[];autosize=1;strokeColor=#666666;sketch=1;hachureGap=4;pointerEvents=0;fontFamily=Architects Daughter;fontSource=https%3A%2F%2Ffonts.googleapis.com%2Fcss%3Ffamily%3DArchitects%2BDaughter;fontSize=27;fillColor=#f5f5f5;fontColor=#333333;" parent="1" vertex="1">
                    <mxGeometry x="-106" y="-199" width="398" height="36" as="geometry"/>
                </mxCell>
                <mxCell id="729UBDh0aR7hyHmuS7Is-1" value="4. Click to select a shape - drag or click these blue arrows to add a connector" style="text;html=1;align=center;verticalAlign=middle;resizable=0;points=[];autosize=1;strokeColor=none;sketch=1;hachureGap=4;pointerEvents=0;fontFamily=Architects Daughter;fontSource=https%3A%2F%2Ffonts.googleapis.com%2Fcss%3Ffamily%3DArchitects%2BDaughter;fontSize=20;" parent="1" vertex="1">
                    <mxGeometry x="-414" y="234" width="764" height="28" as="geometry"/>
                </mxCell>
                <mxCell id="729UBDh0aR7hyHmuS7Is-2" value="11. Expand the Format panel to use different styles" style="rounded=1;whiteSpace=wrap;html=1;sketch=1;hachureGap=4;pointerEvents=0;fontFamily=Rock Salt;fontSource=https%3A%2F%2Ffonts.googleapis.com%2Fcss%3Ffamily%3DRock%2BSalt;fontSize=17;fillColor=#ffcc99;strokeColor=#36393d;shadow=0;fontStyle=0;glass=0;" parent="1" vertex="1">
                    <mxGeometry x="417" y="-86" width="337" height="80" as="geometry"/>
                </mxCell>
                <mxCell id="729UBDh0aR7hyHmuS7Is-5" value="3. Type a shape label" style="rounded=0;whiteSpace=wrap;html=1;sketch=1;hachureGap=4;pointerEvents=0;fontFamily=Architects Daughter;fontSource=https%3A%2F%2Ffonts.googleapis.com%2Fcss%3Ffamily%3DArchitects%2BDaughter;fontSize=20;" parent="1" vertex="1">
                    <mxGeometry x="-422" y="132.26" width="221" height="44" as="geometry"/>
                </mxCell>
                <mxCell id="729UBDh0aR7hyHmuS7Is-9" value="9. Hold right mouse button and drag to move canvas" style="text;html=1;align=center;verticalAlign=middle;resizable=0;points=[];autosize=1;strokeColor=none;sketch=1;hachureGap=4;pointerEvents=0;fontFamily=Architects Daughter;fontSource=https%3A%2F%2Ffonts.googleapis.com%2Fcss%3Ffamily%3DArchitects%2BDaughter;fontSize=20;" parent="1" vertex="1">
                    <mxGeometry x="-416" y="667" width="495" height="28" as="geometry"/>
                </mxCell>
                <mxCell id="729UBDh0aR7hyHmuS7Is-14" style="edgeStyle=none;curved=1;rounded=0;sketch=1;orthogonalLoop=1;jettySize=auto;html=1;fontFamily=Architects Daughter;fontSource=https%3A%2F%2Ffonts.googleapis.com%2Fcss%3Ffamily%3DArchitects%2BDaughter;fontSize=20;endArrow=open;startSize=14;endSize=14;sourcePerimeterSpacing=8;targetPerimeterSpacing=8;exitX=1.013;exitY=0.679;exitDx=0;exitDy=0;exitPerimeter=0;" parent="1" source="729UBDh0aR7hyHmuS7Is-10" edge="1">
                    <mxGeometry relative="1" as="geometry">
                        <mxPoint x="904" y="732" as="targetPoint"/>
                        <Array as="points">
                            <mxPoint x="868" y="673"/>
                        </Array>
                    </mxGeometry>
                </mxCell>
                <mxCell id="729UBDh0aR7hyHmuS7Is-10" value="10. Scroll mouse wheel to zoom" style="text;html=1;align=center;verticalAlign=middle;resizable=0;points=[];autosize=1;strokeColor=none;sketch=1;hachureGap=4;pointerEvents=0;fontFamily=Architects Daughter;fontSource=https%3A%2F%2Ffonts.googleapis.com%2Fcss%3Ffamily%3DArchitects%2BDaughter;fontSize=20;" parent="1" vertex="1">
                    <mxGeometry x="434" y="659" width="298" height="28" as="geometry"/>
                </mxCell>
            </root>
        </mxGraphModel>
    </diagram>
</mxfile>